<?xml version="1.0" encoding="utf-8"?>
<!-- Generator: Adobe Illustrator 19.0.0, SVG Export Plug-In . SVG Version: 6.00 Build 0)  -->
<svg version="1.1" id="Layer_1" xmlns="http://www.w3.org/2000/svg" xmlns:xlink="http://www.w3.org/1999/xlink" x="0px" y="0px"
	 viewBox="-198 321.7 198 199.2" style="enable-background:new -198 321.7 198 199.2;" xml:space="preserve">
<style type="text/css">
	.st0{fill:#FF6666;}
	.st1{fill:#FFCC00;}
	.st2{fill:#01B4FF;}
	.st3{fill:#C365EF;}
	.st4{fill:#66CC00;}
</style>
<g id="XMLID_195_">
	<g id="XMLID_286_">
		<path id="XMLID_136_" class="st0" d="M-126.9,353.1v2h-2v-2H-126.9 M-122.9,349.1h-10v10h10V349.1L-122.9,349.1z"/>
	</g>
	<g id="XMLID_281_">
		<path id="XMLID_132_" class="st0" d="M-118.9,353.1h2v2h-2V353.1 M-122.9,349.1v10h10v-10H-122.9L-122.9,349.1z"/>
	</g>
	<g id="XMLID_276_">
		<path id="XMLID_128_" class="st0" d="M-106.9,353.1v2h-2v-2H-106.9 M-102.9,349.1h-10v10h10V349.1L-102.9,349.1z"/>
	</g>
	<g id="XMLID_271_">
		<path id="XMLID_124_" class="st0" d="M-98.9,353.1h2v2h-2V353.1 M-102.9,349.1v10h10v-10H-102.9L-102.9,349.1z"/>
	</g>
	<g id="XMLID_266_">
		<path id="XMLID_120_" class="st1" d="M-86.9,353.1v2h-2v-2H-86.9 M-82.9,349.1h-10v10h10V349.1L-82.9,349.1z"/>
	</g>
	<g id="XMLID_261_">
		<path id="XMLID_116_" class="st1" d="M-76.9,353.1v2h-2v-2H-76.9 M-72.9,349.1h-10v10h10V349.1L-72.9,349.1z"/>
	</g>
	<g id="XMLID_256_">
		<path id="XMLID_112_" class="st1" d="M-76.9,363.1v2h-2v-2H-76.9 M-72.9,359.1h-10v10h10V359.1L-72.9,359.1z"/>
	</g>
	<g id="XMLID_251_">
		<path id="XMLID_108_" class="st1" d="M-76.9,373.1v2h-2v-2H-76.9 M-72.9,369.1h-10v10h10V369.1L-72.9,369.1z"/>
	</g>
	<g id="XMLID_246_">
		<path id="XMLID_104_" class="st1" d="M-116.9,383.1v2h-2v-2H-116.9 M-112.9,379.1h-10v10h10V379.1L-112.9,379.1z"/>
	</g>
	<g id="XMLID_241_">
		<path id="XMLID_100_" class="st1" d="M-126.9,383.1v2h-2v-2H-126.9 M-122.9,379.1h-10v10h10V379.1L-122.9,379.1z"/>
	</g>
	<g id="XMLID_236_">
		<path id="XMLID_96_" class="st1" d="M-126.9,373.1v2h-2v-2H-126.9 M-122.9,369.1h-10v10h10V369.1L-122.9,369.1z"/>
	</g>
	<g id="XMLID_231_">
		<path id="XMLID_92_" class="st1" d="M-126.9,363.1v2h-2v-2H-126.9 M-122.9,359.1h-10v10h10V359.1L-122.9,359.1z"/>
	</g>
	<g id="XMLID_226_">
		<path id="XMLID_88_" class="st1" d="M-106.9,463.1v2h-2v-2H-106.9 M-102.9,459.1h-10v10h10V459.1L-102.9,459.1z"/>
	</g>
	<g id="XMLID_221_">
		<path id="XMLID_84_" class="st1" d="M-96.9,463.1v2h-2v-2H-96.9 M-92.9,459.1h-10v10h10V459.1L-92.9,459.1z"/>
	</g>
	<g id="XMLID_216_">
		<path id="XMLID_80_" class="st1" d="M-96.9,453.1v2h-2v-2H-96.9 M-92.9,449.1h-10v10h10V449.1L-92.9,449.1z"/>
	</g>
	<g id="XMLID_211_">
		<path id="XMLID_76_" class="st1" d="M-96.9,443.1v2h-2v-2H-96.9 M-92.9,439.1h-10v10h10V439.1L-92.9,439.1z"/>
	</g>
	<g id="XMLID_206_">
		<path id="XMLID_72_" class="st2" d="M-86.9,393.1v2h-2v-2H-86.9 M-82.9,389.1h-10v10h10V389.1L-82.9,389.1z"/>
	</g>
	<g id="XMLID_201_">
		<path id="XMLID_68_" class="st2" d="M-76.9,393.1v2h-2v-2H-76.9 M-72.9,389.1h-10v10h10V389.1L-72.9,389.1z"/>
	</g>
	<g id="XMLID_196_">
		<path id="XMLID_64_" class="st2" d="M-76.9,383.1v2h-2v-2H-76.9 M-72.9,379.1h-10v10h10V379.1L-72.9,379.1z"/>
	</g>
	<g id="XMLID_191_">
		<path id="XMLID_60_" class="st2" d="M-86.9,383.1v2h-2v-2H-86.9 M-82.9,379.1h-10v10h10V379.1L-82.9,379.1z"/>
	</g>
	<g id="XMLID_186_">
		<path id="XMLID_56_" class="st3" d="M-106.9,433.1v2h-2v-2H-106.9 M-102.9,429.1h-10v10h10V429.1L-102.9,429.1z"/>
	</g>
	<g id="XMLID_181_">
		<path id="XMLID_52_" class="st3" d="M-106.9,443.1v2h-2v-2H-106.9 M-102.9,439.1h-10v10h10V439.1L-102.9,439.1z"/>
	</g>
	<g id="XMLID_176_">
		<path id="XMLID_48_" class="st3" d="M-96.9,433.1v2h-2v-2H-96.9 M-92.9,429.1h-10v10h10V429.1L-92.9,429.1z"/>
	</g>
	<g id="XMLID_171_">
		<path id="XMLID_44_" class="st3" d="M-96.9,423.1v2h-2v-2H-96.9 M-92.9,419.1h-10v10h10V419.1L-92.9,419.1z"/>
	</g>
	<g id="XMLID_166_">
		<path id="XMLID_40_" class="st3" d="M-106.9,383.1v2h-2v-2H-106.9 M-102.9,379.1h-10v10h10V379.1L-102.9,379.1z"/>
	</g>
	<g id="XMLID_161_">
		<path id="XMLID_36_" class="st3" d="M-96.9,383.1v2h-2v-2H-96.9 M-92.9,379.1h-10v10h10V379.1L-92.9,379.1z"/>
	</g>
	<g id="XMLID_156_">
		<path id="XMLID_32_" class="st3" d="M-106.9,393.1v2h-2v-2H-106.9 M-102.9,389.1h-10v10h10V389.1L-102.9,389.1z"/>
	</g>
	<g id="XMLID_151_">
		<path id="XMLID_28_" class="st3" d="M-116.9,393.1v2h-2v-2H-116.9 M-112.9,389.1h-10v10h10V389.1L-112.9,389.1z"/>
	</g>
	<g id="XMLID_146_">
		<path id="XMLID_24_" class="st4" d="M-96.9,393.1v2h-2v-2H-96.9 M-92.9,389.1h-10v10h10V389.1L-92.9,389.1z"/>
	</g>
	<g id="XMLID_141_">
		<path id="XMLID_198_" class="st4" d="M-96.9,403.1v2h-2v-2H-96.9 M-92.9,399.1h-10v10h10V399.1L-92.9,399.1z"/>
	</g>
	<g id="XMLID_127_">
		<path id="XMLID_203_" class="st4" d="M-96.9,413.1v2h-2v-2H-96.9 M-92.9,409.1h-10v10h10V409.1L-92.9,409.1z"/>
	</g>
	<g id="XMLID_3_">
		<path id="XMLID_207_" class="st4" d="M-106.9,403.1v2h-2v-2H-106.9 M-102.9,399.1h-10v10h10V399.1L-102.9,399.1z"/>
	</g>
</g>
</svg>
