<?xml version="1.0" encoding="utf-8"?>
<!-- Generator: Adobe Illustrator 19.0.0, SVG Export Plug-In . SVG Version: 6.00 Build 0)  -->
<svg version="1.1" id="Layer_1" xmlns="http://www.w3.org/2000/svg" xmlns:xlink="http://www.w3.org/1999/xlink" x="0px" y="0px"
	 viewBox="0 0 198 199.2" style="enable-background:new 0 0 198 199.2;" xml:space="preserve">
<style type="text/css">
	.st0{fill:#FF6666;}
	.st1{fill:#FFCC00;}
	.st2{fill:#01B4FF;}
	.st3{fill:#C365EF;}
	.st4{fill:#66CC00;}
	.st5{fill:#999999;}
	.st6{font-family:'OpenSans-Semibold';}
	.st7{font-size:12px;}
</style>
<g id="XMLID_195_">
	<g id="XMLID_286_">
		<path id="XMLID_136_" class="st0" d="M71.1,31.4v2l-2,0v-2L71.1,31.4 M75.1,27.4l-10,0v10l10,0V27.4L75.1,27.4z"/>
	</g>
	<g id="XMLID_281_">
		<path id="XMLID_132_" class="st0" d="M79.1,31.4l2,0l0,2l-2,0V31.4 M75.1,27.4v10l10,0l0-10L75.1,27.4L75.1,27.4z"/>
	</g>
	<g id="XMLID_276_">
		<path id="XMLID_128_" class="st0" d="M91.1,31.4l0,2l-2,0l0-2L91.1,31.4 M95.1,27.4l-10,0l0,10l10,0L95.1,27.4L95.1,27.4z"/>
	</g>
	<g id="XMLID_271_">
		<path id="XMLID_124_" class="st0" d="M99.1,31.4l2,0l0,2l-2,0L99.1,31.4 M95.1,27.4l0,10l10,0l0-10L95.1,27.4L95.1,27.4z"/>
	</g>
	<g id="XMLID_266_">
		<path id="XMLID_120_" class="st1" d="M111.1,31.4v2h-2v-2H111.1 M115.1,27.4h-10v10h10V27.4L115.1,27.4z"/>
	</g>
	<g id="XMLID_261_">
		<path id="XMLID_116_" class="st1" d="M121.1,31.4v2h-2v-2H121.1 M125.1,27.4h-10v10h10V27.4L125.1,27.4z"/>
	</g>
	<g id="XMLID_256_">
		<path id="XMLID_112_" class="st1" d="M121.1,41.4v2h-2v-2H121.1 M125.1,37.4h-10v10h10V37.4L125.1,37.4z"/>
	</g>
	<g id="XMLID_251_">
		<path id="XMLID_108_" class="st1" d="M121.1,51.4v2h-2v-2H121.1 M125.1,47.4h-10v10h10V47.4L125.1,47.4z"/>
	</g>
	<g id="XMLID_246_">
		<path id="XMLID_104_" class="st1" d="M81.1,61.4v2h-2v-2H81.1 M85.1,57.4h-10v10h10V57.4L85.1,57.4z"/>
	</g>
	<g id="XMLID_241_">
		<path id="XMLID_100_" class="st1" d="M71.1,61.4v2h-2v-2H71.1 M75.1,57.4h-10v10h10V57.4L75.1,57.4z"/>
	</g>
	<g id="XMLID_236_">
		<path id="XMLID_96_" class="st1" d="M71.1,51.4v2h-2v-2H71.1 M75.1,47.4h-10v10h10V47.4L75.1,47.4z"/>
	</g>
	<g id="XMLID_231_">
		<path id="XMLID_92_" class="st1" d="M71.1,41.4v2h-2v-2H71.1 M75.1,37.4h-10v10h10V37.4L75.1,37.4z"/>
	</g>
	<g id="XMLID_226_">
		<path id="XMLID_88_" class="st1" d="M91.1,141.4v2h-2v-2H91.1 M95.1,137.4h-10v10h10V137.4L95.1,137.4z"/>
	</g>
	<g id="XMLID_221_">
		<path id="XMLID_84_" class="st1" d="M101.1,141.4v2h-2v-2H101.1 M105.1,137.4h-10v10h10V137.4L105.1,137.4z"/>
	</g>
	<g id="XMLID_216_">
		<path id="XMLID_80_" class="st1" d="M101.1,131.4v2h-2v-2H101.1 M105.1,127.4h-10v10h10V127.4L105.1,127.4z"/>
	</g>
	<g id="XMLID_211_">
		<path id="XMLID_76_" class="st1" d="M101.1,121.4v2h-2v-2H101.1 M105.1,117.4h-10v10h10V117.4L105.1,117.4z"/>
	</g>
	<g id="XMLID_206_">
		<path id="XMLID_72_" class="st2" d="M111.1,71.4v2h-2v-2H111.1 M115.1,67.4h-10v10h10V67.4L115.1,67.4z"/>
	</g>
	<g id="XMLID_201_">
		<path id="XMLID_68_" class="st2" d="M121.1,71.4v2h-2v-2H121.1 M125.1,67.4h-10v10h10V67.4L125.1,67.4z"/>
	</g>
	<g id="XMLID_196_">
		<path id="XMLID_64_" class="st2" d="M121.1,61.4v2h-2v-2H121.1 M125.1,57.4h-10v10h10V57.4L125.1,57.4z"/>
	</g>
	<g id="XMLID_191_">
		<path id="XMLID_60_" class="st2" d="M111.1,61.4v2h-2v-2H111.1 M115.1,57.4h-10v10h10V57.4L115.1,57.4z"/>
	</g>
	<g id="XMLID_186_">
		<path id="XMLID_56_" class="st3" d="M91.1,111.4v2h-2v-2H91.1 M95.1,107.4h-10v10h10V107.4L95.1,107.4z"/>
	</g>
	<g id="XMLID_181_">
		<path id="XMLID_52_" class="st3" d="M91.1,121.4v2h-2v-2H91.1 M95.1,117.4h-10v10h10V117.4L95.1,117.4z"/>
	</g>
	<g id="XMLID_176_">
		<path id="XMLID_48_" class="st3" d="M101.1,111.4v2h-2v-2H101.1 M105.1,107.4h-10v10h10V107.4L105.1,107.4z"/>
	</g>
	<g id="XMLID_171_">
		<path id="XMLID_44_" class="st3" d="M101.1,101.4v2h-2v-2H101.1 M105.1,97.4h-10v10h10V97.4L105.1,97.4z"/>
	</g>
	<g id="XMLID_166_">
		<path id="XMLID_40_" class="st3" d="M91.1,61.4v2h-2v-2H91.1 M95.1,57.4h-10v10h10V57.4L95.1,57.4z"/>
	</g>
	<g id="XMLID_161_">
		<path id="XMLID_36_" class="st3" d="M101.1,61.4v2h-2v-2H101.1 M105.1,57.4h-10v10h10V57.4L105.1,57.4z"/>
	</g>
	<g id="XMLID_156_">
		<path id="XMLID_32_" class="st3" d="M91.1,71.4v2h-2v-2H91.1 M95.1,67.4h-10v10h10V67.4L95.1,67.4z"/>
	</g>
	<g id="XMLID_151_">
		<path id="XMLID_28_" class="st3" d="M81.1,71.4v2h-2v-2H81.1 M85.1,67.4h-10v10h10V67.4L85.1,67.4z"/>
	</g>
	<g id="XMLID_146_">
		<path id="XMLID_24_" class="st4" d="M101.1,71.4v2h-2v-2H101.1 M105.1,67.4h-10v10h10V67.4L105.1,67.4z"/>
	</g>
	<g id="XMLID_141_">
		<path id="XMLID_198_" class="st4" d="M101.1,81.4v2h-2v-2H101.1 M105.1,77.4h-10v10h10V77.4L105.1,77.4z"/>
	</g>
	<g id="XMLID_127_">
		<path id="XMLID_203_" class="st4" d="M101.1,91.4v2h-2v-2H101.1 M105.1,87.4h-10v10h10V87.4L105.1,87.4z"/>
	</g>
	<g id="XMLID_3_">
		<path id="XMLID_207_" class="st4" d="M91.1,81.4v2h-2v-2H91.1 M95.1,77.4h-10v10h10V77.4L95.1,77.4z"/>
	</g>
</g>
<text id="XMLID_2_" transform="matrix(1 0 0 1 51.122 168.9721)" class="st5 st6 st7">COMING SOON</text>
</svg>
