<?xml version="1.0" encoding="utf-8"?>
<!-- Generator: Adobe Illustrator 19.0.0, SVG Export Plug-In . SVG Version: 6.00 Build 0)  -->
<svg version="1.1" id="Layer_1" xmlns="http://www.w3.org/2000/svg" xmlns:xlink="http://www.w3.org/1999/xlink" x="0px" y="0px"
	 viewBox="-200 404.9 31.9 33" style="enable-background:new -200 404.9 31.9 33;" xml:space="preserve">
<style type="text/css">
	.st0{fill:url(#Fill-24_1_);}
</style>
<title>Page 1 Copy</title>
<desc>Created with Sketch.</desc>
<g id="Welcome">
	<g id="Page-1-Copy">
		
			<radialGradient id="Fill-24_1_" cx="-393.2401" cy="829.6758" r="1" gradientTransform="matrix(31.9497 0 0 -32.0528 12379.8682 27014.3262)" gradientUnits="userSpaceOnUse">
			<stop  offset="0" style="stop-color:#09C7F0"/>
			<stop  offset="1" style="stop-color:#04A0D7"/>
		</radialGradient>
		<path id="Fill-24" class="st0" d="M-183.1,404.9c-0.3,0-0.6,0-0.8,0.1l0,0c0.2,0.2,0.2,0.2,1.3,0.5l0,0c2.9,0.9,3.3,1.6,3.7,2.4
			l0,0c0.5,1,0.3,2.3,0.2,3.1l0,0c-0.3,1.6-0.4,2.6,0.6,3.2l0,0c0.9,0.4,1.2-0.3,1.7-1.6l0,0c0.3-0.8,0.7-1.6,1.1-2.1l0,0
			c0.8-0.9,1.7-0.8,2-0.8l0,0c0.1,0,0.2,0,0.3,0l0,0c-0.5-0.9-2.2-2.2-3.7-3l0,0c-1.8-1-4.7-1.7-6.2-1.8l0,0c0,0,0,0,0,0l0,0H-183.1
			z M-189.3,410.3c-0.3,1.6,1.4,2.6,2.6,1.8l0,0c1.3-0.9,0.5-3-0.9-3.3l0,0c0,0-0.1,0-0.1,0l0,0
			C-188.8,408.8-189.3,409.9-189.3,410.3L-189.3,410.3z M-183.6,411.4c-1.2,1.3-2.7,2-4.2,2.1l0,0c-2.2,0.1-3.8-1-4.6-1.6l0,0
			c-0.5-0.4-0.8-0.6-1.2-0.6l0,0c-0.3,0-0.9,0.5-0.9,1.2l0,0c0,0.7,0.6,1.5,1.5,2.5l0,0c1,1.2,2.1,2.3,2.6,3.8l0,0
			c1.2,3.3-1.9,5.5-2.2,8.4l0,0c-0.1,1.3,1.3,1.7,1.7,1.5l0,0c0.6-0.2,0.9-0.4,2-1.7l0,0c1.3-1.4,3.1-3.5,5.8-4.1l0,0
			c1.3-0.3,3.7,1.1,4.8,1.2l0,0c0.4,0,0.8,0.1,1.2-0.1l0,0c0.5-0.3,0.8-1.6-0.4-2.2l0,0c-3-1.6-7.1-4-4-9.6l0,0
			c0.5-0.8,0.1-1.6-0.7-1.6l0,0C-182.6,410.6-183.1,410.8-183.6,411.4L-183.6,411.4z M-174.3,410.9c0,0.1-0.1,0.2-0.1,0.2l0,0
			c-0.2,0.8,0.5,2.3,1.5,2.9l0,0c1,0.5,1.2-0.5,0.9-1.4l0,0c-0.4-1.2-1.3-2.1-1.8-2.1l0,0C-174,410.6-174.2,410.7-174.3,410.9
			L-174.3,410.9z M-199,418c0.3,0.7,1.2,0.2,1.8-1.1l0,0c0.4-0.8,0.7-2.1,0.1-2.5l0,0c-0.1,0-0.1,0-0.2,0l0,0
			C-198.4,414.4-199.5,417-199,418L-199,418z M-175.3,416.4c-0.5,0.2-0.5,0.6-0.6,0.7l0,0c-0.1,0.5,0,1,1.4,2.7l0,0
			c1.9,2.2,3.1,3.7,2.4,6.1l0,0c-0.6,2.4-3.5,3.6-4.9,4.9l0,0c-0.5,0.4-1.2,1.7-0.5,2l0,0c0.5,0.2,2.4-0.5,6.2-3.2l0,0
			c0,0,0.6-0.4,1-0.5l0,0c0.1-0.1,0.2-0.2,0.2-0.3l0,0c0.3-0.6,0.7-1.5,1-2.1l0,0l0.1-0.2c0.7-2.2,1.2-5.8,0.8-8.2l0,0
			c-0.1-0.5-0.3-1.2-0.4-1.7l0,0l0-0.1c-0.2,3-0.2,3-1.2,2.9l0,0c-0.7-0.1-1.7-0.8-2.9-1.7l0,0c-1.1-0.8-1.8-1.3-2.4-1.3l0,0
			C-175.2,416.4-175.2,416.4-175.3,416.4L-175.3,416.4z M-199.9,418.2c-0.2,1.7-0.1,4.6,0.2,6.3l0,0c1,5.8,6.6,9.6,7.1,9.4l0,0
			c0-0.2,0-0.3-0.9-1.2l0,0c-1.2-1.2-3.4-3.5-4-5.7l0,0c-0.7-2.6,1-4,2.4-5.1l0,0c0.6-0.4,1.1-0.9,1.3-1.4l0,0c0,0,0.5-1.4-0.6-1.6
			l0,0c-0.4,0-0.6,0.1-1.4,0.4l0,0c-0.9,0.3-2.3,0.8-3,0.4l0,0c-0.5-0.3-0.8-0.9-0.8-1.5l0,0c0-0.3-0.1-0.5-0.1-0.5l0,0
			C-199.8,417.7-199.8,417.9-199.9,418.2L-199.9,418.2z M-187.6,431.7c0,0.9,0.1,1.8-0.2,2.4l0,0c-0.3,1.1-1.2,1.4-1.5,1.5l0,0
			c-0.1,0-0.2,0.1-0.2,0.1l0,0c0.8,0.7,2.9,1.1,4.6,1.2l0,0c2,0.1,5-0.4,6.4-0.9l0,0c0.3-0.1,0.6-0.3,0.8-0.5l0,0
			c-0.2-0.1-0.2-0.1-1.4,0.1l0,0c-3,0.4-3.6-0.1-4.4-0.6l0,0c-0.9-0.7-1.2-2-1.4-2.7l0,0c-0.4-1.6-0.7-2.6-1.9-2.7l0,0
			c0,0,0,0-0.1,0l0,0C-187.7,429.5-187.7,430.3-187.6,431.7L-187.6,431.7z M-171.5,430.3c-0.9,0.6-3,2.9-2.8,3.1l0,0
			c0.3,0.2,1.5-0.7,2.4-1.9l0,0c0.5-0.7,0.9-1.4,0.7-1.4l0,0C-171.3,430.2-171.4,430.3-171.5,430.3L-171.5,430.3z M-191.7,433.4
			c1.1,1.2,2.8,1.6,2.8,0.6l0,0c0-0.1,0-0.2,0-0.2l0,0c-0.2-0.8-1.4-1.9-2.6-2.1l0,0c0,0-0.1,0-0.1,0l0,0
			C-192.7,431.8-192.4,432.7-191.7,433.4L-191.7,433.4z"/>
	</g>
</g>
</svg>
