<?xml version="1.0" encoding="UTF-8"?>
<svg width="2241px" height="1201px" viewBox="0 0 2241 1201" version="1.1" xmlns="http://www.w3.org/2000/svg" xmlns:xlink="http://www.w3.org/1999/xlink">
    <!-- Generator: Sketch 41.2 (35397) - http://www.bohemiancoding.com/sketch -->
    <title>Group 17</title>
    <desc>Created with Sketch.</desc>
    <defs>
        <polygon id="path-1" points="0 1201 2241 1201 2241 0 0 0"></polygon>
    </defs>
    <g id="Page-1" stroke="none" stroke-width="1" fill="none" fill-rule="evenodd">
        <g id="Group-17">
            <mask id="mask-2" fill="white">
                <use xlink:href="#path-1"></use>
            </mask>
            <use id="Mask" fill="#FFFFFF" xlink:href="#path-1"></use>
            <g id="Group-18" mask="url(#mask-2)">
                <g transform="translate(718.000000, 534.000000)">
                    <path d="M178.935177,89.4697282 L178.935177,53.6669943 L176.52144,53.6669943 C173.021761,53.6669943 170.247643,50.7067019 170.247643,46.9707288 C170.247643,43.2365489 173.021761,40.2742071 176.52144,40.2742071 L178.935177,40.2742071 L178.935177,28.6833147 C178.935177,24.4344907 182.191803,20.957761 186.290357,20.957761 C190.271823,20.957761 193.528449,24.4344907 193.528449,28.6833147 L193.528449,40.2742071 L204.986022,40.2742071 C208.485701,40.2742071 211.381465,43.2365489 211.381465,46.9707288 C211.381465,50.7067019 208.485701,53.6669943 204.986022,53.6669943 L193.528449,53.6669943 L193.528449,87.0222867 C193.528449,93.0763358 196.424214,95.5194224 201.369495,95.5194224 C203.058391,95.5194224 204.504234,95.1346561 204.986022,95.1346561 C208.246726,95.1346561 211.138412,97.9671201 211.138412,101.573472 C211.138412,104.405935 209.332188,106.723755 207.278832,107.623166 C204.143613,108.782076 201.126442,109.430696 197.266382,109.430696 C186.53317,109.430696 178.935177,104.405935 178.935177,89.4697282" id="Fill-79" fill="#494949"></path>
                    <path d="M264.155985,75.839317 L264.155985,75.5841724 C264.155985,63.6103069 256.075484,53.6922001 244.617431,53.6922001 C232.916565,53.6922001 225.439739,63.4806852 225.439739,75.3292839 L225.439739,75.5841724 C225.439739,87.4330272 233.519999,97.3483162 244.856646,97.3483162 C256.679398,97.3483162 264.155985,87.558294 264.155985,75.839317 M210.842868,75.839317 L210.842868,75.5841724 C210.842868,56.1401539 225.318092,40.0427312 244.856646,40.0427312 C264.399038,40.0427312 278.752856,55.8829599 278.752856,75.3292839 L278.752856,75.5841724 C278.752856,94.9008747 264.277631,111.000091 244.617431,111.000091 C225.196685,111.000091 210.842868,95.1603742 210.842868,75.839317" id="Fill-81" fill="#494949"></path>
                    <path d="M341.810506,101.728811 C341.810506,105.97533 338.553881,109.45206 334.451247,109.45206 C330.47386,109.45206 327.095828,106.104951 327.095828,101.728811 L327.095828,98.2518253 C322.993195,104.686542 317.083858,110.225947 307.193054,110.225947 C292.839237,110.225947 284.515683,99.9212807 284.515683,84.085663 L284.515683,47.8981628 C284.515683,43.519461 287.772308,40.0427312 291.753535,40.0427312 C295.852329,40.0427312 299.108955,43.519461 299.108955,47.8981628 L299.108955,79.4497671 C299.108955,90.0098342 304.058075,95.9342617 312.74201,95.9342617 C321.182412,95.9342617 327.095828,89.7503347 327.095828,79.1902676 L327.095828,47.8981628 C327.095828,43.519461 330.352453,40.0427312 334.451247,40.0427312 C338.432474,40.0427312 341.810506,43.519461 341.810506,47.8981628 L341.810506,101.728811 Z" id="Fill-83" fill="#494949"></path>
                    <path d="M350.670864,48.0277845 C350.670864,43.6493388 353.805843,40.1723529 357.908716,40.1723529 C362.00751,40.1723529 365.264135,43.6493388 365.264135,48.0277845 L365.264135,54.981244 C368.641688,46.4815466 374.915485,40.0427312 381.306849,40.0427312 C385.89175,40.0427312 388.544461,43.262267 388.544461,47.7700782 C388.544461,51.8913299 386.013156,54.5964777 382.752932,55.238438 C372.380101,57.1712354 365.264135,65.6706766 365.264135,81.7678431 L365.264135,101.858433 C365.264135,106.104951 362.00751,109.581681 357.908716,109.581681 C353.927489,109.581681 350.670864,106.234573 350.670864,101.858433 L350.670864,48.0277845 Z" id="Fill-85" fill="#494949"></path>
                    <path d="M388.259035,76.5399084 L388.259035,76.2804089 C388.259035,57.4806562 402.009418,41.5108058 420.223295,41.5108058 C430.596126,41.5108058 437.595004,45.7616792 443.14372,51.169157 C443.864482,51.8134228 444.589563,53.1022105 444.589563,54.6461429 C444.589563,57.3507784 442.540286,59.4111481 440.126309,59.4111481 C438.923279,59.4111481 437.837817,58.8967601 437.108657,58.2524943 C432.645403,53.8740487 427.582554,50.2676972 420.105967,50.2676972 C407.436727,50.2676972 397.789457,61.7292241 397.789457,76.0209094 L397.789457,76.2804089 C397.789457,90.7063269 407.67978,102.165548 420.705083,102.165548 C427.825607,102.165548 433.491651,98.6885624 438.076792,94.053435 C438.680226,93.4091692 439.523114,92.7649034 440.729743,92.7649034 C443.022313,92.7649034 444.949944,94.9525893 444.949944,97.2704091 C444.949944,98.4290629 444.467916,99.5884851 443.743075,100.362629 C437.837817,106.671566 430.717533,111.052061 420.223295,111.052061 C402.009418,111.052061 388.259035,95.2120888 388.259035,76.5399084" id="Fill-87" fill="#00BCD4"></path>
                    <path d="M502.384941,76.5399084 L502.384941,76.2804089 C502.384941,61.9866743 492.372731,50.2676972 479.225542,50.2676972 C465.714133,50.2676972 456.426764,61.9866743 456.426764,76.0209094 L456.426764,76.2804089 C456.426764,90.5764491 466.317567,102.165548 479.464516,102.165548 C492.971846,102.165548 502.384941,90.5764491 502.384941,76.5399084 M446.896581,76.5399084 L446.896581,76.2804089 C446.896581,57.4806562 460.647204,41.5108058 479.464516,41.5108058 C498.160421,41.5108058 511.910804,57.2232061 511.910804,76.0209094 L511.910804,76.2804089 C511.910804,95.0824671 498.042853,111.052061 479.225542,111.052061 C460.529877,111.052061 446.896581,95.3419666 446.896581,76.5399084" id="Fill-89" fill="#00BCD4"></path>
                    <path d="M519.065869,47.3053554 C519.065869,44.6030255 521.115146,42.2831563 523.65029,42.2831563 C526.303481,42.2831563 528.357077,44.4731476 528.357077,47.3053554 L528.357077,54.5183144 C532.455872,47.3053554 538.968643,41.5108058 549.701855,41.5108058 C564.784592,41.5108058 573.589694,52.3280669 573.589694,68.1682957 L573.589694,105.12789 C573.589694,107.960354 571.536338,110.148296 569.005273,110.148296 C566.347763,110.148296 564.298486,107.960354 564.298486,105.12789 L564.298486,70.6177865 C564.298486,58.2524943 558.029008,50.5251474 547.052742,50.5251474 C536.315451,50.5251474 528.357077,58.8967601 528.357077,71.3875753 L528.357077,105.12789 C528.357077,107.960354 526.425128,110.148296 523.771937,110.148296 C521.115146,110.148296 519.065869,107.960354 519.065869,105.12789 L519.065869,47.3053554 Z" id="Fill-91" fill="#00BCD4"></path>
                    <path d="M585.22105,47.3053554 C585.22105,44.6030255 587.270567,42.2831563 589.805951,42.2831563 C592.455063,42.2831563 594.508419,44.4731476 594.508419,47.3053554 L594.508419,54.5183144 C598.611052,47.3053554 605.124303,41.5108058 615.857036,41.5108058 C630.936174,41.5108058 639.741036,52.3280669 639.741036,68.1682957 L639.741036,105.12789 C639.741036,107.960354 637.68768,110.148296 635.156615,110.148296 C632.503423,110.148296 630.454146,107.960354 630.454146,105.12789 L630.454146,70.6177865 C630.454146,58.2524943 624.180349,50.5251474 613.204084,50.5251474 C602.466793,50.5251474 594.508419,58.8967601 594.508419,71.3875753 L594.508419,105.12789 C594.508419,107.960354 592.57647,110.148296 589.923518,110.148296 C587.270567,110.148296 585.22105,107.960354 585.22105,105.12789 L585.22105,47.3053554 Z" id="Fill-93" fill="#00BCD4"></path>
                    <path d="M696.440354,72.546229 C695.476539,60.4424857 688.963288,49.8829309 676.537101,49.8829309 C665.682962,49.8829309 657.481055,59.5410259 656.273946,72.546229 L696.440354,72.546229 Z M677.987502,111.052061 C660.859087,111.052061 646.86565,97.0109096 646.86565,76.4100306 L646.86565,76.1507873 C646.86565,56.9660121 659.530572,41.5108058 676.780154,41.5108058 C695.233486,41.5108058 705.731322,57.6082286 705.731322,75.2513768 C705.731322,77.9537068 703.677966,79.8867603 701.389475,79.8867603 L656.273946,79.8867603 C657.598383,94.3129345 667.132884,102.425048 678.230556,102.425048 C685.950195,102.425048 691.616479,99.2037188 696.197301,94.6933459 C696.926461,94.053435 697.768869,93.534436 698.854091,93.534436 C701.146422,93.534436 702.953125,95.4715883 702.953125,97.7894081 C702.953125,98.9480619 702.475177,100.107484 701.507282,101.006895 C695.597945,107.060687 688.599068,111.052061 677.987502,111.052061 L677.987502,111.052061 Z" id="Fill-95" fill="#00BCD4"></path>
                    <path d="M708.510251,76.5399084 L708.510251,76.2804089 C708.510251,57.4806562 722.260874,41.5108058 740.474511,41.5108058 C750.847342,41.5108058 757.84622,45.7616792 763.395176,51.169157 C764.115698,51.8134228 764.840779,53.1022105 764.840779,54.6461429 C764.840779,57.3507784 762.791502,59.4111481 760.377285,59.4111481 C759.174495,59.4111481 758.089273,58.8967601 757.360113,58.2524943 C752.896619,53.8740487 747.83377,50.2676972 740.357184,50.2676972 C727.688183,50.2676972 718.040193,61.7292241 718.040193,76.0209094 L718.040193,76.2804089 C718.040193,90.7063269 727.930997,102.165548 740.956539,102.165548 C748.076823,102.165548 753.743107,98.6885624 758.328008,94.053435 C758.931442,93.4091692 759.773851,92.7649034 760.980719,92.7649034 C763.273529,92.7649034 765.20116,94.9525893 765.20116,97.2704091 C765.20116,98.4290629 764.719372,99.5884851 763.994291,100.362629 C758.089273,106.671566 750.968749,111.052061 740.474511,111.052061 C722.260874,111.052061 708.510251,95.2120888 708.510251,76.5399084" id="Fill-97" fill="#00BCD4"></path>
                    <path d="M774.809993,90.6286381 L774.809993,50.4474586 L769.747144,50.4474586 C767.57622,50.4474586 765.64427,48.3870889 765.64427,46.0687567 C765.64427,43.6236207 767.57622,41.6908233 769.747144,41.6908233 L774.809993,41.6908233 L774.809993,25.9804724 C774.809993,23.275837 776.741942,20.957761 779.394654,20.957761 C781.930277,20.957761 784.101201,23.275837 784.101201,25.9804724 L784.101201,41.6908233 L800.261722,41.6908233 C802.553813,41.6908233 804.481923,43.751193 804.481923,46.0687567 C804.481923,48.5167105 802.553813,50.4474586 800.261722,50.4474586 L784.101201,50.4474586 L784.101201,89.3401065 C784.101201,97.4522198 788.321642,100.414562 794.59112,100.414562 C797.847745,100.414562 799.54072,99.5107963 800.261722,99.5107963 C802.432406,99.5107963 804.243189,101.44385 804.243189,103.76167 C804.243189,105.564845 803.157247,106.983255 801.589998,107.623166 C798.933207,108.782076 796.041282,109.430696 792.420436,109.430696 C782.407986,109.430696 774.809993,104.146436 774.809993,90.6286381" id="Fill-99" fill="#00BCD4"></path>
                    <path d="M67.0502684,0.439764596 C67.7252922,1.13085754 67.7252922,1.13085754 72.3122275,2.53080684 L72.3122275,2.53080684 C84.3978761,6.23856009 85.9473244,9.06054295 87.7378355,12.3266112 L87.7378355,12.3266112 C89.9088452,16.2856928 88.9961301,21.8367607 88.4497051,25.149638 L88.4497051,25.149638 C87.3257892,31.9897538 86.6466713,36.1166276 90.9022357,38.3656203 L90.9022357,38.3656203 C94.5470756,40.1770087 95.8564244,37.0472867 98.0293607,31.8582085 L98.0293607,31.8582085 C99.4738107,28.3931419 100.848422,25.1232329 102.7815,22.9371323 L102.7815,22.9371323 C105.964443,19.343161 109.698628,19.6264155 111.296,19.7461985 L111.296,19.7461985 C111.62713,19.7726036 112.086378,19.7889267 112.39776,19.6727444 L112.39776,19.6727444 C110.344753,15.7592716 103.142974,10.6894963 96.974079,7.42558844 L96.974079,7.42558844 C89.5023378,3.46914735 77.4814703,0.241006362 71.0481532,0.00648124678 L71.0481532,0.00648124678 C70.9258157,0.00216041559 70.7986617,-1.42108547e-14 70.6686179,-1.42108547e-14 L70.6686179,-1.42108547e-14 C69.5162849,-1.42108547e-14 68.1000112,0.166832093 67.0502684,0.439764596 M44.453465,22.3209338 C43.252486,29.0297444 50.4516168,32.9561797 55.1695592,29.7834893 L55.1695592,29.7834893 C60.525439,26.1832768 57.0838528,17.3839041 51.3096653,16.2794516 L51.3096653,16.2794516 C51.1247141,16.2636086 50.943616,16.2559271 50.7673343,16.2559271 L50.7673343,16.2559271 C46.5170681,16.2559271 44.744137,20.694861 44.453465,22.3209338 M68.1946542,26.9547852 C63.0073498,32.2650867 57.1488747,35.1134747 50.8321154,35.4865064 L50.8321154,35.4865064 C41.6136927,36.0273305 35.0305844,31.2501715 31.4955593,28.6831177 L31.4955593,28.6831177 C29.4184702,27.1775481 28.0481934,26.1832768 26.6846596,26.3916369 L26.6846596,26.3916369 C25.4810316,26.574072 23.1294055,28.6082233 23.054269,31.2482511 L23.054269,31.2482511 C22.9649241,34.1355265 25.4465941,37.553304 29.1945058,41.7915593 L29.1945058,41.7915593 C33.416355,46.5711187 37.7805301,51.5148697 39.9004855,57.369836 L39.9004855,57.369836 C44.8354085,71.0421461 31.9810563,80.0983683 30.8109026,92.1899743 L30.8109026,92.1899743 C30.2656817,97.7861708 36.1381245,99.1112257 37.821229,98.608569 L37.821229,98.608569 C40.3171075,97.8466624 41.4694404,97.0689128 46.2769686,91.6712345 L46.2769686,91.6712345 C51.4907634,85.8121874 59.373106,76.962405 70.2536817,74.6241152 L70.2536817,74.6241152 C75.6235291,73.469013 85.5627318,79.1986752 90.0836819,79.7380589 L90.0836819,79.7380589 C91.5900231,79.9245748 93.5556117,80.3249718 95.2341406,79.3364617 L95.2341406,79.3364617 C97.4720988,78.0116468 98.6856005,72.7678381 93.6307481,70.1141276 L93.6307481,70.1141276 C80.9779639,63.4521261 63.952335,53.3766679 77.1768305,30.3766435 L77.1768305,30.3766435 C79.1506071,26.9473438 77.4718374,23.7429674 74.2838367,23.7427273 L74.2838367,23.7427273 C72.5768908,23.7424873 70.4379105,24.6609039 68.1946542,26.9547852 M107.019243,25.0644216 C106.897147,25.3239115 106.787573,25.6923824 106.73098,25.9741966 L106.73098,25.9741966 C106.06005,29.3600479 108.663576,35.4437782 113.019563,38.2117507 L113.019563,38.2117507 C117.336537,40.3594438 117.856953,36.1574355 116.576743,32.2996534 L116.576743,32.2996534 C114.962755,27.4281563 111.335013,23.7729731 108.912585,23.7727331 L108.912585,23.7727331 C108.110167,23.7727331 107.4402,24.1736102 107.019243,25.0644216 M4.00043785,54.4832808 C5.21634778,57.4572128 8.91344606,55.1575705 11.3361147,49.9324853 L11.3361147,49.9324853 C12.8116307,46.7333899 14.2182715,41.0685402 11.6735062,39.4844755 L11.6735062,39.4844755 C11.4201615,39.3949383 11.1632045,39.3522101 10.9052842,39.3522101 L10.9052842,39.3522101 C6.77615142,39.3512499 2.27880187,50.2608685 4.00043785,54.4832808 M102.779573,47.7118182 C100.807483,48.6338355 100.523072,50.3866527 100.486949,50.7284785 L100.486949,50.7284785 C100.246608,52.9477054 100.541615,55.0423483 106.51713,61.8294139 L106.51713,61.8294139 C114.54228,70.9446874 119.322836,77.0473813 116.655974,87.0964344 L116.655974,87.0964344 C114.052448,96.9064016 102.267104,101.854233 96.1244592,107.235829 L96.1244592,107.235829 C93.9864421,109.103628 90.9918214,114.31503 93.9334613,115.445408 L93.9334613,115.445408 C95.9616636,116.223157 103.891207,113.256907 119.751499,102.223184 L119.751499,102.223184 C119.777989,102.20278 122.361527,100.440361 123.81272,100.266088 L123.81272,100.266088 C124.082681,99.8731323 124.447286,99.3462309 124.721341,98.9532753 L124.721341,98.9532753 C126.048752,96.3677379 127.707292,92.8669045 128.841563,90.19255 L128.841563,90.19255 L129.085275,89.5158599 C132.10157,80.2359147 134.162524,65.5738942 132.276407,55.4837932 L132.276407,55.4837932 C131.817159,53.2976927 131.207157,50.3844923 130.625813,48.2327184 L130.625813,48.2327184 L130.552844,47.991712 C129.820986,60.6219816 129.820986,60.6219816 125.571202,59.9774577 L125.571202,59.9774577 C122.532511,59.5201697 118.57701,56.5880056 113.568637,52.8824128 L113.568637,52.8824128 C108.870923,49.3974224 105.98997,47.5790726 103.77176,47.5790726 L103.77176,47.5790726 C103.426421,47.5790726 103.097217,47.6232411 102.779573,47.7118182 M0.500572729,55.2651112 C-0.408048416,62.1801214 -0.0200842854,74.3687061 1.18354372,81.298119 L1.18354372,81.298119 C5.34205682,105.302497 28.570777,120.935984 30.7617749,120.461893 L30.7617749,120.461893 C30.8210171,119.56244 30.6803771,119.161323 26.8737048,115.319384 L26.8737048,115.319384 C21.8997687,110.302899 12.6389613,100.95454 10.1351357,91.4851987 L10.1351357,91.4851987 C7.26911391,80.6497543 14.4641507,74.8507188 20.2472486,70.1868616 L20.2472486,70.1868616 C22.5480613,68.3353854 24.8693439,66.3638862 25.8285377,64.4293541 L25.8285377,64.4293541 C25.8593629,64.3700627 27.9183904,58.4661269 23.4465679,57.9574691 L23.4465679,57.9574691 C21.7514224,58.0998165 21.0520755,58.2577668 17.4809271,59.5624178 L17.4809271,59.5624178 C13.6819611,60.9503648 7.94197039,63.0495686 5.00875927,61.2989119 L5.00875927,61.2989119 C2.74455148,59.9452915 1.80943992,57.6722942 1.55946676,55.2348653 L1.55946676,55.2348653 C1.42556976,53.9141313 1.29070948,53.3243378 1.13297112,53.3243378 L1.13297112,53.3243378 C0.959820151,53.3240978 0.758733839,54.0334342 0.500572729,55.2651112 M51.5044903,111.097451 C51.6205664,114.841452 51.723879,118.383093 50.8663121,121.166908 L50.8663121,121.166908 C49.4536507,125.753711 45.9352423,127.030516 44.4289011,127.577342 L44.4289011,127.577342 C44.118,127.690883 43.6931901,127.868758 43.4554989,128.096081 L43.4554989,128.096081 C46.9476577,130.822766 55.6083368,132.476204 62.5762785,132.914048 L62.5762785,132.914048 C71.0221445,133.44455 83.3069528,131.443045 89.2624791,129.011377 L89.2624791,129.011377 C90.3808562,128.553849 91.788942,127.731211 92.7257393,126.973385 L92.7257393,126.973385 C91.8253061,126.617157 91.8253061,126.617157 87.069073,127.232875 L87.069073,127.232875 C74.5220096,128.821501 71.9444925,126.89225 68.9626353,124.651899 L68.9626353,124.651899 C65.346694,121.936977 63.8771986,116.502811 63.0073498,113.260988 L63.0073498,113.260988 C61.2004628,106.56706 60.1107436,102.530924 55.3034562,102.231346 L55.3034562,102.231346 C55.217242,102.228225 55.1324727,102.226545 55.0498707,102.226545 L55.0498707,102.226545 C51.2403086,102.226545 51.3378415,105.592232 51.5044903,111.097451 M118.515601,105.541583 C114.576958,107.875792 106.11881,117.69392 107.002867,118.346366 L107.002867,118.346366 C108.092587,119.145 113.263515,115.311222 117.198546,110.602956 L117.198546,110.602956 C119.4589,107.896196 120.863615,104.982515 120.05662,104.982515 L120.05662,104.982515 C119.517661,104.982515 118.912475,105.306577 118.515601,105.541583 M34.4246765,118.31828 C39.0670008,123.339086 46.0652861,124.935153 46.1245283,120.976312 L46.1245283,120.976312 C46.1305489,120.692817 46.0775681,120.303942 46.0103787,120.024049 L46.0103787,120.024049 C45.2240951,116.664842 40.331316,112.195183 35.2193888,111.465922 L35.2193888,111.465922 C35.1117414,111.461842 35.0074655,111.459681 34.9060795,111.459681 L34.9060795,111.459681 C30.453282,111.459681 31.7236177,115.394278 34.4246765,118.31828" id="Fill-102" fill="#00BCD4"></path>
                </g>
            </g>
        </g>
    </g>
</svg>