<?xml version="1.0" encoding="UTF-8"?>
<svg width="523px" height="1154px" viewBox="0 0 523 1154" version="1.1" xmlns="http://www.w3.org/2000/svg" xmlns:xlink="http://www.w3.org/1999/xlink">
    <!-- Generator: Sketch 41.2 (35397) - http://www.bohemiancoding.com/sketch -->
    <title>Group 9</title>
    <desc>Created with Sketch.</desc>
    <defs>
        <path d="M144.364195,69.7519235 C144.364189,79.2720753 142.689156,89.8483219 140.684566,96.963265 L140.384266,97.5661633 C139.183064,100.566874 137.377809,104.47021 135.872854,107.171194 C135.572554,107.774092 135.268802,108.3701 134.968501,108.673272 C133.163246,108.972998 130.45709,110.774803 130.45709,110.774803 C113.312346,122.781091 104.593276,126.081528 102.487721,125.182348 C99.4778119,123.983442 102.487721,118.278302 104.893576,116.176771 C111.510543,110.171905 124.444176,105.069663 127.150332,94.2622809 C129.856489,83.454899 124.744476,76.8505793 116.021954,66.9423771 C109.404988,59.7420494 109.104687,57.3373466 109.404988,54.936089 C109.404988,54.6363624 109.705288,52.5348314 111.810844,51.6322065 C112.145662,51.5598588 112.483931,51.5219623 112.832556,51.5219623 C115.307446,51.5219623 118.269031,53.3926694 123.539823,57.3373466 C128.955587,61.5404087 133.163246,64.5445646 136.473455,65.1440177 C140.984867,66.0431974 140.984867,66.0431974 141.885768,52.2351048 L141.885768,52.5348314 C142.489821,54.936089 143.093874,57.9402449 143.691023,60.3380573 C144.159032,63.2175558 144.364197,66.4200613 144.364195,69.7519235 L144.364195,69.7519235 L144.364195,69.7519235 Z M1.12819681e-11,70.8753005 C1.59143508e-06,66.842797 0.168477862,62.9975621 0.523612517,60.0383308 C0.841171689,58.773967 1.07588934,58.0057024 1.26918623,58.0057024 C1.44522446,58.0057024 1.5867454,58.6223812 1.72826633,60.0383308 C1.72826633,62.7427601 2.92946842,65.1440177 5.33532432,66.6426505 C8.64553352,68.7441816 14.6618991,66.3463691 18.8695582,64.840846 C22.7803684,63.3422132 23.68127,63.3422132 25.189676,63.0424867 C30.2982366,63.3422132 27.8958325,69.946533 27.8958325,69.946533 C26.9914792,72.048064 24.2853227,74.1495951 21.8794668,76.2511261 C15.8631012,81.3533679 8.04493247,87.6579611 11.0513894,99.3679678 C13.7575458,109.872178 23.68127,119.776935 29.0970345,125.182348 C33.3081453,129.385411 33.3081453,129.984864 33.3081453,130.887489 C30.9022894,131.187215 5.63562484,114.378412 1.12766529,88.2574142 C0.397896215,83.7118579 9.76341267e-06,77.0726099 1.79702132e-10,70.8755857 L0,70.8753005 L1.12819681e-11,70.8753005 Z M73.0099453,0.599453122 C73.6105463,1.20235138 73.6105463,1.20235138 78.7260104,3.00415588 C91.6561914,6.9040463 93.1645975,9.90820218 95.2667012,13.508366 C97.6760088,17.7114282 96.7716555,23.7162948 96.1710545,27.3164586 C94.9664006,34.8234032 94.0654991,39.3261919 98.8772109,41.7274495 C102.788021,43.8289806 104.292975,40.2253716 106.69538,34.5236766 C108.203786,30.6203411 109.705288,27.3164586 111.810844,24.9186462 C115.117601,21.0153106 119.332164,21.3150372 121.133967,21.3150372 L122.338621,21.3150372 C120.233065,17.111975 112.411445,11.7065615 105.494178,8.10639768 C97.3722565,3.90333556 84.4420755,0.299726561 77.221056,2.27373675e-13 C76.019854,2.27373675e-13 74.2145991,2.27373675e-13 73.0099453,0.599453122 L73.0099453,0.599453122 Z M48.047033,24.3157479 C46.8423792,31.5229659 54.6639996,36.0257546 59.776012,32.4221456 C65.4920771,28.51881 61.8815673,18.9137795 55.5649012,17.7114282 C55.4199285,17.7045379 55.2749559,17.7010928 55.1368867,17.6976476 C50.3320783,17.6976476 48.34043,22.5656204 48.047033,24.3157479 L48.047033,24.3157479 Z M116.021954,27.3164586 C116.021954,27.6196303 115.721654,27.9193569 115.721654,28.2190835 C115.117601,31.8192473 117.827209,38.4235671 122.638921,41.4277229 C127.450633,43.8289806 127.750933,39.3261919 126.54628,35.1231298 C124.737573,29.9278694 120.88199,25.9211798 118.189641,25.9211798 C117.302546,25.9211798 116.543166,26.3518214 116.021954,27.3164586 L116.021954,27.3164586 Z M74.2145991,29.7211614 C68.498534,35.4228563 62.1818679,38.7232936 55.2646007,39.0264653 C45.3374248,39.6259184 38.1233088,34.5236766 34.2090469,31.5229659 C32.1034915,30.0174428 30.6019889,28.8185366 29.0970345,29.1182631 C27.8958325,29.4214348 25.189676,31.5229659 25.189676,34.5236766 C25.189676,37.5243874 27.8958325,41.4277229 31.8066427,45.9305116 C36.318054,51.0361986 41.1297658,56.4347218 43.53217,62.7427601 C48.9479345,77.4534775 34.8130996,87.3582346 33.6084458,100.566874 C33.0078448,106.268569 39.3245109,107.774092 41.1297658,107.171194 C43.8359222,106.268569 45.040576,105.369389 50.1491366,99.6642492 C55.8652017,93.359656 64.2874232,83.7546256 76.019854,81.0536414 C81.7324673,79.85129 92.5605447,86.1593283 97.6760088,86.7553363 C99.1775114,87.058508 101.586819,87.3582346 103.388622,86.4556097 C105.794478,84.9535318 106.999132,79.2518369 101.586819,76.5508527 C87.7488329,69.3470798 69.4028873,58.2365263 83.8380227,33.3213253 C85.9849988,29.6212525 84.2073578,26.1761197 80.8074036,26.1761197 C78.9641798,26.1761197 76.6446171,27.1889887 74.2145991,29.7211614 L74.2145991,29.7211614 Z M4.13412223,59.1391511 C5.63562484,62.4430335 9.85018733,60.0383308 12.2525915,54.3366359 C13.7575458,50.7330269 15.2625002,44.7316054 12.5563438,42.9298009 C12.2525915,42.8161115 11.9453875,42.7609894 11.6381835,42.7609894 C7.08880323,42.7609894 2.44277447,54.6398075 4.13412223,59.1391511 L4.13412223,59.1391511 Z M55.8652017,120.67956 C55.8652017,124.882622 56.168954,128.486231 55.2646007,131.486942 C53.7596463,136.589183 49.8522878,137.78809 48.3473335,138.390988 C48.047033,138.390988 47.4429802,138.690715 47.4429802,138.993886 C51.3572422,141.994597 60.6769135,143.796401 68.1982335,144.096128 C77.221056,144.695581 90.7552899,142.59405 97.071956,139.893066 C98.2766098,139.290168 99.7815642,138.390988 100.682466,137.78809 C99.7815642,137.491808 99.7815642,137.491808 94.3657996,138.390988 C80.8315658,139.893066 78.1254093,138.091261 74.8152001,135.390277 C70.9043899,132.389566 69.4028873,126.684426 68.498534,123.080817 C66.3964303,115.877045 65.4920771,111.370811 60.0797642,111.074529 C59.9175329,111.064194 59.7587533,111.057304 59.6068772,111.057304 C55.5856116,111.057304 55.8652017,114.891737 55.8652017,120.67956 L55.8652017,120.67956 Z M128.351534,114.674693 C124.143875,117.079396 114.820752,127.883333 115.721654,128.486231 C116.922856,129.385411 122.638921,125.182348 126.84658,120.080107 C129.556188,117.379123 131.061143,114.07524 130.156789,114.07524 C129.556188,114.07524 128.955587,114.378412 128.351534,114.674693 L128.351534,114.674693 Z M37.5192561,128.785957 C42.3309679,134.191371 50.1491366,135.690004 50.1491366,131.486942 L50.1491366,130.587762 C49.2482351,126.984153 44.1362227,122.181638 38.4236094,121.279013 C38.261378,121.268678 38.1060502,121.265232 37.9576258,121.265232 C33.3875351,121.265232 34.6059958,125.588874 37.5192561,128.785957 L37.5192561,128.785957 Z" id="path-1"></path>
    </defs>
    <g id="Page-1" stroke="none" stroke-width="1" fill="none" fill-rule="evenodd">
        <g id="Group-9">
            <g id="Group">
                <path d="M43.3195971,2.59843468 C44.5912038,1.84991131 46.4091748,1.35890401 47.9554605,1.04958442 C23.2927271,5.70889838 0.0812269457,26.763652 0.0812269457,51.5024619 C0.0812269457,84.5058106 35.5395196,108.553156 44.1578546,113.913695 C-23.6092775,36.640857 43.3195971,2.59843468 43.3195971,2.59843468" id="Fill-9" fill="#4EB1B1"></path>
                <path d="M48.7727616,114.156946 L54.8650974,114.128416 C30.7000794,36.6874051 54.9167401,0.667439592 54.9167401,0.667439592 C55.4017319,0.436951454 55.876994,0.260519166 56.3365387,0.12387799 C54.0605199,0.197454008 51.779262,0.415178959 49.5024947,0.780055946 C50.377426,0.649420976 50.9672,0.595365126 50.9672,0.595365126 C5.50819588,33.7143333 45.2071734,107.735561 48.7727616,114.156946" id="Fill-10" fill="#4EB1B1"></path>
                <path d="M63.4033489,114.09313 L69.4807159,114.06385 C73.3030204,107.466784 114.161338,34.3862776 68.7921472,1.32662065 C68.7921472,1.32662065 68.7719392,1.25154308 69.209779,1.28382644 C66.7945496,0.781557498 64.3650997,0.436951454 61.9536125,0.251509858 C62.0119911,0.277787007 62.0681244,0.300310278 62.0681244,0.300310278 C81.7828932,34.0506808 64.4324597,109.700341 63.4033489,114.09313" id="Fill-11" fill="#4EB1B1"></path>
                <path d="M74.3358734,113.545064 C83.234875,107.317379 116.197106,82.2136924 116.84002,51.5024619 C117.304804,29.3583328 97.8048383,10.1579951 75.8110569,3.03763846 C83.5350011,7.46346118 136.982899,41.8362248 74.3358734,113.545064" id="Fill-12" fill="#4EB1B1"></path>
                <path d="M48.7727616,114.156946 C45.2071734,107.735561 5.50819588,33.7143333 50.9672,0.595365126 C50.9672,0.595365126 50.377426,0.649420976 49.5024947,0.780055946 C48.9868166,0.861890497 48.4711386,0.952734356 47.9554605,1.04958442 C46.4091748,1.35890401 44.5912038,1.84991131 43.3195971,2.59843468 C43.3195971,2.59843468 -23.6092775,36.640857 44.1578546,113.913695 C44.3112857,114.010545 44.4430119,114.09313 44.5777318,114.174214 L48.7727616,114.156946" id="Fill-13" fill="#F8F5D8"></path>
                <path d="M68.7921472,1.32662065 C114.161338,34.3862776 73.3030204,107.466784 69.4807159,114.06385 L73.4916283,114.049585 L73.435495,114.166706 C73.7011927,113.988772 74.0013189,113.777804 74.3358734,113.545064 C136.982899,41.8362248 83.5350011,7.46346118 75.8110569,3.03763846 C73.6263483,2.33040776 71.4266708,1.74255039 69.209779,1.28382644 C68.7719392,1.25154308 68.7921472,1.32662065 68.7921472,1.32662065" id="Fill-14" fill="#F8F5D8"></path>
                <path d="M54.8650974,114.128416 L63.4033489,114.09313 C64.4324597,109.700341 81.7828932,34.0506808 62.0681244,0.300310278 C62.0681244,0.300310278 62.0119911,0.277787007 61.9536125,0.251509858 C60.6176396,0.148653587 59.2854089,0.081083775 57.9621595,0.081083775 C57.4202859,0.081083775 56.8784123,0.1081117 56.3365387,0.12387799 C55.876994,0.260519166 55.4017319,0.436951454 54.9167401,0.667439592 C54.9167401,0.667439592 30.7000794,36.6874051 54.8650974,114.128416" id="Fill-15" fill="#F8F5D8"></path>
                <polyline id="Fill-16" fill="#47301E" points="73.5791963 114.259051 73.3052657 114.259051 68.1784229 130.745335 68.4568442 130.745335 73.5979074 114.215506 73.5791963 114.259051"></polyline>
                <polyline id="Fill-17" fill="#47301E" points="44.997609 114.485035 44.7214331 114.485035 49.8033693 130.972069 50.0817905 130.972069 44.997609 114.485035"></polyline>
                <polygon id="Fill-18" fill="#47301E" points="58.8093984 130.821914 59.0737482 130.821914 59.0737482 114.33488 58.8093984 114.33488"></polygon>
                <polyline id="Fill-19" fill="#3B8282" points="72.2065496 118.328256 45.8014381 118.328256 39.0976234 110.65683 78.480009 110.65683 72.2065496 118.328256"></polyline>
                <path d="M42.4012561,114.024059 L44.5665052,114.024059 L44.5665052,113.460977 L42.4012561,113.460977 L42.4012561,114.024059 Z M46.7310058,114.024059 L48.8962549,114.024059 L48.8962549,113.460977 L46.7310058,113.460977 L46.7310058,114.024059 Z M51.0607555,114.024059 L53.2260046,114.024059 L53.2260046,113.460977 L51.0607555,113.460977 L51.0607555,114.024059 Z M55.3912537,114.024059 L57.5565028,114.024059 L57.5565028,113.460977 L55.3912537,113.460977 L55.3912537,114.024059 Z M59.7217519,114.024059 L61.8862525,114.024059 L61.8862525,113.460977 L59.7217519,113.460977 L59.7217519,114.024059 Z M64.0515016,114.024059 L66.2160022,114.024059 L66.2160022,113.460977 L64.0515016,113.460977 L64.0515016,114.024059 Z M68.3812513,114.024059 L70.545752,114.024059 L70.545752,113.460977 L68.3812513,113.460977 L68.3812513,114.024059 Z M72.711001,114.024059 L74.8762501,114.024059 L74.8762501,113.460977 L72.711001,113.460977 L72.711001,114.024059 Z" id="Fill-20" fill="#4EB1B1"></path>
                <path d="M69.1281986,146.932059 C69.1281986,148.748936 67.6455307,150.235472 65.8342957,150.235472 L52.2694929,150.235472 C50.4575095,150.235472 48.9748415,148.748936 48.9748415,146.932059 L48.9748415,133.219141 C48.9748415,131.401513 50.4575095,129.914977 52.2694929,129.914977 L65.8342957,129.914977 C67.6455307,129.914977 69.1281986,131.401513 69.1281986,133.219141 L69.1281986,146.932059" id="Fill-21" fill="#7B5128"></path>
                <path d="M66.2646511,134.247703 C65.7512184,133.771712 65.2370372,133.298723 64.7213592,132.82123 C65.327599,132.252892 65.930845,131.688309 66.5303488,131.128981 C67.051266,131.608727 67.5706862,132.085469 68.0893581,132.562212 C67.4868605,133.120038 66.8768785,133.681619 66.2646511,134.247703 Z M67.4958418,136.000014 C67.7330986,136.220742 67.9673617,136.439968 68.2031216,136.660697 C67.546736,137.269576 66.8888536,137.880707 66.2287258,138.496343 C65.5775793,137.890467 64.9226906,137.280837 64.2640597,136.668204 C64.9226906,136.051817 65.5790762,135.437683 66.2317196,134.825801 C66.6538421,135.217706 67.0774615,135.611112 67.4958418,136.000014 Z M67.9703554,140.688608 C67.5310187,141.096279 67.0886882,141.502449 66.648603,141.908619 C66.4831968,142.062528 66.3185391,142.214184 66.1538814,142.366592 C65.5873091,141.8418 65.0192399,141.312503 64.4436864,140.776449 C64.7176169,140.523437 64.9900506,140.271177 65.2639812,140.017415 C65.5932967,139.713351 65.924109,139.408536 66.252676,139.103721 C66.8304749,139.636771 67.4022863,140.164567 67.9703554,140.688608 Z M67.976343,144.64895 C67.4554258,145.136954 66.9345087,145.624958 66.4143399,146.112212 C65.8178299,145.555887 65.2108417,144.989051 64.5986143,144.41696 C65.1165377,143.936464 65.6344611,143.452213 66.1538814,142.968714 C66.7698509,143.53555 67.3790845,144.096379 67.976343,144.64895 Z M64.1660136,148.221141 C64.1510447,148.206876 64.1368242,148.194864 64.1226038,148.18135 C63.5335782,147.637037 62.9378166,147.082214 62.3368159,146.522886 C62.4423465,146.424534 62.5463803,146.328435 62.6526594,146.230834 C63.2057596,145.715051 63.7648475,145.194013 64.3254322,144.672975 C64.9421502,145.240561 65.5528807,145.802141 66.1546298,146.355463 C65.4885145,146.980108 64.823896,147.603252 64.1660136,148.221141 Z M62.1047982,150.152136 C62.0883324,150.136369 62.0711182,150.121354 62.0561493,150.105588 C61.4663753,149.556771 60.8691168,148.998194 60.2651224,148.435863 C60.8421728,147.902812 61.4259593,147.364506 62.0127396,146.821695 C62.6189794,147.37877 63.2177347,147.931341 63.8075088,148.475654 C63.8209808,148.489918 63.8359497,148.502682 63.8494217,148.515445 C63.2641383,149.066514 62.6818487,149.610826 62.1047982,150.152136 Z M59.927574,148.120537 C59.3602533,147.591991 58.7884419,147.056688 58.2113915,146.519883 C58.7861966,145.99434 59.3654924,145.46204 59.9507758,144.923734 C60.53082,145.456785 61.1063736,145.986832 61.6774366,146.512375 C61.088411,147.052183 60.5046245,147.589738 59.927574,148.120537 Z M58.1103515,149.791013 C58.0055693,149.887112 57.9045293,149.980208 57.801244,150.074806 C57.2324264,149.545509 56.6576213,149.010957 56.0768286,148.470398 C56.3971627,148.179097 56.7219875,147.886295 57.0475607,147.588237 C57.3364602,147.323213 57.6291019,147.054435 57.9217436,146.78791 C58.5010394,147.320961 59.0795867,147.851008 59.6491528,148.3758 C59.1304809,148.852543 58.6170482,149.325532 58.1103515,149.791013 Z M54.9002743,147.375016 C54.5410211,147.043174 54.1765287,146.706826 53.8157786,146.372731 C53.9362782,146.260865 54.0552808,146.151252 54.1765287,146.039387 C54.6592753,145.594927 55.1480093,145.141459 55.6397372,144.68799 C56.3073494,145.302125 56.9719679,145.914007 57.6313472,146.519883 C57.0161261,147.094977 56.4076409,147.664065 55.809634,148.221141 C55.508011,147.940351 55.2041426,147.658059 54.9002743,147.375016 Z M53.4699974,146.055153 C52.9565647,145.579912 52.4408866,145.10392 51.9244601,144.627177 C52.2650022,144.317858 52.6085381,144.006286 52.9558163,143.690209 C53.2192686,143.446207 53.4872116,143.201454 53.7559031,142.956702 C54.2693358,143.428939 54.7850139,143.901928 55.2976982,144.374166 C54.8052219,144.826133 54.3164878,145.276598 53.8344897,145.719556 C53.7124933,145.832172 53.5919938,145.943287 53.4699974,146.055153 Z M51.1535626,148.184353 C50.6371361,147.703105 50.1199612,147.222609 49.6012893,146.739109 C50.2486936,146.151252 50.9155573,145.545376 51.5951447,144.925986 C52.1123196,145.405732 52.6250039,145.882474 53.1399335,146.358466 C52.4640884,146.980108 51.8017153,147.588988 51.1535626,148.184353 Z M50.7306916,143.525789 C50.4290686,143.248002 50.1266972,142.971717 49.8258226,142.694681 C50.1731007,142.371096 50.5233726,142.04526 50.8781351,141.71642 C51.1311093,141.480676 51.3878256,141.243431 51.644542,141.005435 C52.1751889,141.496443 52.7065843,141.988201 53.2379797,142.479208 C53.314321,142.550532 53.3906623,142.619603 53.4662552,142.689425 C52.8532794,143.260766 52.247788,143.824598 51.6557687,144.379421 C51.3466612,144.094877 51.0390506,143.809583 50.7306916,143.525789 Z M49.6469444,138.544393 C50.2142651,138.021102 50.7890703,137.491054 51.3668692,136.958004 C51.3938132,136.982029 51.4192603,137.007555 51.4462043,137.03158 C52.0793881,137.62244 52.717811,138.214802 53.3577308,138.810918 C52.7844225,139.347723 52.2133596,139.880023 51.6505296,140.406316 C50.9791751,139.783173 50.3115629,139.162281 49.6469444,138.544393 Z M49.5533889,134.701923 C49.7210404,134.546512 49.8894403,134.391852 50.0585887,134.235691 C50.5465744,133.781472 51.0383022,133.322748 51.5292816,132.864775 C52.1130681,133.407585 52.6990999,133.954901 53.2926161,134.506721 C53.3105788,134.523989 53.3300384,134.542008 53.3487495,134.560026 C52.6931123,135.174911 52.0382237,135.788295 51.3885741,136.397174 C50.7718561,135.828086 50.1581318,135.261251 49.5533889,134.701923 Z M53.3996437,131.123726 C53.9954053,131.683804 54.5986513,132.249889 55.2041426,132.819728 C54.6974459,133.29572 54.1885039,133.773213 53.6803102,134.248454 C53.6623476,134.231937 53.6436365,134.214669 53.6271707,134.197401 C53.0336544,133.644831 52.4483711,133.095263 51.8660815,132.551701 C52.375772,132.077211 52.8869594,131.601219 53.3996437,131.123726 Z M55.5237283,133.119288 C55.5663896,133.158328 55.6068056,133.195867 55.6479701,133.234907 C56.2601974,133.803995 56.8769154,134.376837 57.4943819,134.952682 C56.9824461,135.427172 56.4750009,135.900161 55.9675557,136.372399 C55.3051826,135.757513 54.6458033,135.14488 53.9894177,134.535251 C54.5013535,134.063763 55.0125409,133.591526 55.5237283,133.119288 Z M57.6455676,131.151504 C58.2997079,131.759633 58.9575903,132.371515 59.6199635,132.984899 C59.3228311,133.258932 59.0264472,133.533716 58.7293148,133.80925 C58.4246981,134.090791 58.1215782,134.371581 57.8177098,134.653873 C57.1553367,134.04124 56.4952089,133.432361 55.8403202,132.827987 C56.4428178,132.26941 57.0438185,131.710082 57.6455676,131.151504 Z M61.752281,134.954934 C61.4484126,135.239478 61.142299,135.524773 60.8391791,135.810818 C60.5450405,136.082599 60.2538957,136.355882 59.9605056,136.629164 C59.3587564,136.074341 58.7570073,135.518767 58.156755,134.966196 C58.4591265,134.683904 58.7607495,134.400862 59.063121,134.117819 C59.3587564,133.842285 59.6543919,133.565248 59.9500273,133.289714 C60.5487827,133.844537 61.1505319,134.400111 61.752281,134.954934 Z M62.2589777,131.134987 C62.6174825,131.470584 62.9767357,131.80543 63.3374858,132.142528 C63.5777364,132.364007 63.8172386,132.586988 64.058986,132.809968 C63.4040974,133.418096 62.7454665,134.029228 62.087584,134.642611 C61.4873317,134.085536 60.8878279,133.52771 60.2890726,132.973637 C60.9484519,132.358752 61.6048375,131.745368 62.2589777,131.134987 Z M62.1474595,138.647249 C62.3308284,138.475321 62.5119519,138.306397 62.6953207,138.136722 C63.1107072,137.748571 63.5260938,137.358167 63.9399834,136.970767 C64.6016081,137.581148 65.2587421,138.188525 65.9121339,138.789896 C65.5858122,139.096213 65.2579936,139.402529 64.931672,139.708846 C64.6584898,139.963359 64.3868046,140.217121 64.1143709,140.470883 C63.4632244,139.866509 62.8083358,139.256879 62.1474595,138.647249 Z M62.5628461,142.516747 C63.0762788,142.040004 63.5919568,141.565514 64.1098802,141.08727 C64.6869307,141.617318 65.260239,142.145864 65.8290566,142.667653 C65.3081394,143.150402 64.7879707,143.631649 64.2715442,144.111395 C63.7057204,143.585852 63.1361543,143.053552 62.5628461,142.516747 Z M61.0988892,143.871897 C61.4873317,143.510774 61.8810134,143.148149 62.2731982,142.785525 C62.8509971,143.317825 63.4258022,143.84562 63.9946198,144.36816 C63.4347836,144.886946 62.8734504,145.407233 62.3188533,145.920764 C62.2133226,146.019116 62.107792,146.115215 62.0022614,146.212065 C61.4364375,145.685771 60.8631293,145.153471 60.2860788,144.615916 C60.557764,144.36816 60.827204,144.120404 61.0988892,143.871897 Z M58.0078146,142.499479 C58.1305595,142.386863 58.2540528,142.272745 58.3767976,142.159378 C58.9066961,141.665367 59.4403368,141.167603 59.9732291,140.67134 C60.6356022,141.280219 61.29573,141.886846 61.9506187,142.489719 C61.2897425,143.107607 60.6303631,143.721742 59.9777198,144.330621 C59.3258249,143.723243 58.6686909,143.112863 58.0078146,142.499479 Z M57.6657756,142.815556 C58.3281488,143.428189 58.989025,144.037068 59.6439137,144.640691 C59.0646179,145.182751 58.4898127,145.720307 57.9217436,146.248853 C57.2668549,145.638472 56.6074755,145.022836 55.9458508,144.404948 C56.5124231,143.880156 57.0879767,143.350108 57.6657756,142.815556 Z M55.7976589,141.081264 C56.3080978,141.556505 56.8192852,142.031746 57.3297242,142.504735 C56.7519253,143.037785 56.1756232,143.567082 55.6083025,144.088871 C55.0978636,143.61363 54.5881731,143.137638 54.0769857,142.660896 C54.6435579,142.139858 55.2176146,141.612813 55.7976589,141.081264 Z M53.6848009,139.114982 C54.2858016,139.675061 54.8897961,140.236641 55.4922937,140.797471 C54.9189854,141.333524 54.3486709,141.865074 53.7865893,142.390617 C53.7117449,142.320044 53.6369005,142.250972 53.5620561,142.180399 C53.0306607,141.687891 52.5000137,141.195382 51.9701152,140.702873 C52.5351906,140.178831 53.1084989,139.649535 53.6848009,139.114982 Z M53.6795618,138.509106 C53.0104527,137.891969 52.3435889,137.277083 51.6812158,136.666703 C52.3346076,136.062328 52.9947353,135.4542 53.65636,134.843069 C54.3149909,135.451197 54.9766156,136.063079 55.6404856,136.678715 C54.9818547,137.292099 54.3284629,137.90323 53.6795618,138.509106 Z M57.627605,138.513611 C57.6799961,138.562411 57.7331356,138.610461 57.7855267,138.658511 C57.1268958,139.272645 56.4742525,139.883026 55.8253513,140.488151 C55.2191115,139.929574 54.6136202,139.371748 54.0096257,138.814672 C54.662269,138.211799 55.319403,137.603671 55.9810277,136.991038 C56.5288889,137.498562 57.07675,138.005336 57.627605,138.513611 Z M58.1066093,138.359702 C58.0542182,138.311652 58.003324,138.262101 57.9509329,138.214802 C57.4023233,137.704275 56.8552106,137.196 56.306601,136.687724 C56.8140461,136.216237 57.3237366,135.742498 57.8326787,135.267257 C58.4299372,135.823582 59.0301894,136.381408 59.6289448,136.938484 C59.1207512,137.413725 58.6118091,137.887464 58.1066093,138.359702 Z M59.6424168,140.365775 C59.1072792,140.861287 58.5743869,141.357549 58.0429915,141.849307 C57.9194982,141.964176 57.7960049,142.076792 57.6717632,142.191661 C57.1613242,141.718672 56.6478915,141.245684 56.1352072,140.772695 C56.4233583,140.50617 56.714503,140.241146 57.0063963,139.973119 C57.3701402,139.63527 57.7391232,139.293667 58.1073577,138.954316 C58.620042,139.425803 59.1319778,139.89654 59.6424168,140.365775 Z M61.4835895,138.661514 C60.9716537,139.136004 60.4612147,139.609743 59.9522727,140.08048 C59.4448275,139.607491 58.9358854,139.13225 58.4269434,138.65776 C58.9358854,138.188525 59.4448275,137.717038 59.9560149,137.243298 C60.464957,137.718539 60.973899,138.190777 61.4835895,138.661514 Z M63.7805648,140.782455 C63.2656352,141.262952 62.7522024,141.741946 62.2417635,142.218689 C61.5921139,141.611311 60.9372253,141.00018 60.2785944,140.386796 C60.7875364,139.913057 61.2972269,139.438567 61.8091628,138.963326 C62.4685421,139.572955 63.1249277,140.180333 63.7805648,140.782455 Z M60.2905695,136.933228 C60.584708,136.661447 60.8780982,136.391168 61.1707398,136.119387 C61.4790989,135.834843 61.785961,135.55105 62.0935715,135.266506 C62.6047589,135.738744 63.1151979,136.210231 63.6256368,136.680217 C63.2087534,137.066115 62.7911215,137.450513 62.3734897,137.836411 C62.1901209,138.006087 62.006752,138.175762 61.8226347,138.346188 C61.3144411,137.876202 60.8040022,137.405466 60.2905695,136.933228 Z M64.3972828,133.123041 C64.9107155,133.601286 65.4226514,134.076527 65.9338388,134.551017 C65.2767048,135.156893 64.6158285,135.767273 63.952707,136.378405 C63.4437649,135.906167 62.9355713,135.433178 62.4258808,134.957937 C63.0860086,134.346055 63.7446395,133.733422 64.3972828,133.123041 Z M68.6776352,132.536686 C68.7756814,132.44434 68.8722307,132.354247 68.9695285,132.263403 C68.9298609,132.131267 68.8909418,131.999881 68.8348085,131.875252 C68.6903588,132.00889 68.545909,132.142528 68.399214,132.277668 C67.8835359,131.796421 67.3671094,131.312921 66.849186,130.832425 C67.031058,130.661248 67.2099361,130.494576 67.3903112,130.326402 C67.2496037,130.250574 67.1081477,130.181502 66.956962,130.126696 C66.8132607,130.259583 66.6703079,130.39247 66.5243612,130.526859 C66.513883,130.517099 66.5019079,130.506588 66.4906813,130.495327 C66.2833622,130.303879 66.0760432,130.110929 65.8687241,129.918731 C65.856749,129.91798 65.8455223,129.914977 65.8342957,129.914977 L65.2138354,129.914977 C65.5319242,130.20853 65.850013,130.502084 66.1681018,130.796388 C66.17858,130.806148 66.1898067,130.816659 66.2010333,130.826419 C65.6000326,131.382743 64.9937928,131.943573 64.3838108,132.508907 C64.1420633,132.285927 63.9018127,132.063697 63.6593168,131.839966 C63.2978183,131.508874 62.9348228,131.17628 62.5718274,130.842936 C62.9056335,130.530613 63.2356974,130.224297 63.5657613,129.914977 L62.9393135,129.914977 C62.9250931,129.928491 62.9093757,129.942005 62.8951553,129.955519 C62.6833456,130.152222 62.4662968,130.352679 62.2529902,130.548632 C62.0224693,130.337664 61.792697,130.126696 61.5629246,129.914977 L60.9492004,129.914977 C61.2800127,130.222795 61.6085797,130.529111 61.939392,130.838431 C61.2830065,131.44731 60.6228787,132.05694 59.9597571,132.670324 C59.297384,132.057691 58.6350109,131.44731 57.9786253,130.842936 C58.3139283,130.531364 58.6447407,130.224297 58.9785468,129.914977 L58.3191674,129.914977 C58.0953826,130.122942 57.8738431,130.330907 57.6493099,130.539622 C57.4202859,130.329405 57.197998,130.123693 56.970471,129.914977 L56.3155823,129.914977 C56.6493884,130.225798 56.9802007,130.534367 57.3184975,130.848191 C56.7174968,131.406768 56.1172446,131.967598 55.5154954,132.529929 C54.9032681,131.963844 54.2947829,131.403765 53.6937822,130.848942 C53.9235546,130.637974 54.1488363,130.426255 54.3771118,130.213035 C54.4833909,130.113932 54.5889215,130.014079 54.6966975,129.914977 L54.052287,129.914977 C53.82476,130.126696 53.5972329,130.337664 53.3689575,130.549382 C53.1369397,130.335411 52.911658,130.126696 52.6818857,129.914977 L52.2694929,129.914977 C52.2193472,129.914977 52.1736921,129.92774 52.1242947,129.929992 C52.4408866,130.225047 52.7552332,130.520853 53.0755673,130.821163 C52.5621346,131.297155 52.0509472,131.770894 51.5382629,132.245385 C51.0263271,131.764888 50.5218757,131.291149 50.0189212,130.821914 C49.9051577,130.929275 49.8071115,131.047147 49.7098137,131.168772 C50.2030385,131.628247 50.6977601,132.089974 51.201463,132.557707 C50.7082383,133.01493 50.2135167,133.471401 49.7262795,133.926371 C49.5556342,134.082533 49.3857374,134.237943 49.2173374,134.393354 C49.135757,134.317526 49.0571704,134.2447 48.9748415,134.169623 L48.9748415,135.237226 C49.0691455,135.150136 49.1612041,135.064547 49.2562565,134.976707 C49.8572572,135.542041 50.4649939,136.113381 51.0787182,136.687724 C50.5054099,137.224529 49.9335986,137.759081 49.3707685,138.287627 C49.3258619,138.247836 49.2809552,138.205793 49.236797,138.1645 C49.1484806,138.081915 49.0616611,138.002333 48.9748415,137.918997 L48.9748415,138.538387 C48.9972949,138.559408 49.0182513,138.578928 49.0399562,138.598449 C49.0182513,138.61947 48.9972949,138.639741 48.9748415,138.659261 L48.9748415,139.164533 C49.0893535,139.060176 49.1993748,138.95807 49.3131383,138.852211 C49.9807505,139.470099 50.6506081,140.087237 51.3249563,140.710381 C51.0689884,140.949127 50.8137689,141.188625 50.5600464,141.422867 C50.2067807,141.75546 49.8572572,142.080546 49.5099791,142.404131 C49.331101,142.239711 49.1529712,142.076792 48.9748415,141.912373 L48.9748415,142.487467 C49.0496859,142.55804 49.1230335,142.627111 49.1978779,142.696182 C49.1215366,142.767506 49.0519313,142.836577 48.9748415,142.908652 L48.9748415,143.484497 C49.1552166,143.317825 49.3273587,143.157909 49.5099791,142.987483 C49.8086084,143.266772 50.1079861,143.54531 50.4088606,143.824598 C50.7164712,144.110644 51.0233333,144.395939 51.3309439,144.681984 C50.658841,145.308882 50.001707,145.920764 49.3632841,146.518381 C49.2338032,146.397507 49.1043224,146.278133 48.9748415,146.157258 L48.9748415,146.776648 C48.9928042,146.792415 49.0115153,146.809682 49.029478,146.826199 L49.0302264,146.82695 C49.0115153,146.84572 48.9943011,146.861486 48.9748415,146.879505 L48.9748415,146.932059 C48.9748415,147.050681 48.9972949,147.163298 49.0100184,147.278166 C49.095341,147.200086 49.1784183,147.125759 49.2667348,147.045426 C49.7869035,147.525922 50.3070722,148.005668 50.8272409,148.484663 C50.5301086,148.757195 50.249442,149.014711 49.961291,149.281236 C50.0758029,149.394603 50.2037869,149.493705 50.3340162,149.589805 C50.6146828,149.330036 50.8908587,149.075523 51.1790097,148.808998 C51.6976815,149.287993 52.2111143,149.762483 52.7260439,150.235472 L53.3599761,150.235472 C52.7440065,149.664132 52.1257916,149.088287 51.5038345,148.509439 C52.1489934,147.911821 52.8106181,147.302191 53.4834694,146.679047 C53.8457164,147.013893 54.2079634,147.350241 54.5664682,147.682835 C54.8703365,147.967378 55.1742049,148.251172 55.4750794,148.533463 C54.8523739,149.113062 54.2446372,149.681399 53.6488756,150.235472 L54.1368612,150.235472 C54.6615206,149.760231 55.1936644,149.27523 55.7385318,148.780469 C56.2624427,149.269974 56.7811146,149.754975 57.2952958,150.235472 L58.3161736,150.235472 C58.3603319,150.19493 58.405987,150.153637 58.451642,150.110843 C58.9583388,149.64311 59.4725199,149.167869 59.9904433,148.689625 C60.557764,149.211414 61.1190972,149.727197 61.6729459,150.235472 L62.5688336,150.235472 C63.0897508,149.756477 63.6136617,149.272977 64.1420633,148.784973 C64.6772009,149.278233 65.2011119,149.760982 65.7212806,150.235472 L65.8342957,150.235472 C65.991469,150.235472 66.1411578,150.210696 66.293092,150.189675 C65.6920913,149.634101 65.0821093,149.069517 64.4586552,148.492171 C65.1232737,147.878787 65.7931313,147.260899 66.4652342,146.640758 C67.1410793,147.260899 67.8034524,147.871279 68.4560957,148.466644 C67.8655733,149.015461 67.2825352,149.561275 66.702491,150.104837 C67.7390862,149.816539 68.5668655,149.037985 68.9261187,148.028942 C68.8497774,148.101017 68.7726876,148.171589 68.6963463,148.242162 C68.0511874,147.642293 67.3940534,147.027407 66.7234474,146.40126 C67.2481068,145.91701 67.7742631,145.432009 68.2996709,144.946257 C68.5810859,145.205275 68.8512743,145.45228 69.1281986,145.707544 L69.1281986,145.128696 C68.955308,144.96878 68.7906503,144.815622 68.6147659,144.654205 C68.7869081,144.495041 68.9568049,144.336627 69.1281986,144.178214 L69.1281986,143.573839 C68.8490289,143.834358 68.5713561,144.093376 68.2921865,144.353895 C67.6956764,143.799823 67.0886882,143.237492 66.4779577,142.668404 C66.641867,142.514495 66.8065247,142.362838 66.970434,142.208178 C67.4082738,141.798255 67.8468622,141.38758 68.284702,140.979158 C68.5698593,141.24193 68.8460352,141.497194 69.1281986,141.756211 L69.1281986,141.214902 C68.9448298,141.042974 68.7659516,140.874801 68.5810859,140.701371 C68.7644547,140.530945 68.9455782,140.360519 69.1281986,140.190093 L69.1281986,139.621756 C68.8422929,139.884527 68.5578841,140.147299 68.27123,140.410821 C67.7084,139.881524 67.1403308,139.348474 66.5662741,138.81242 C67.2286472,138.198285 67.8857813,137.585652 68.539173,136.975272 C68.7375108,137.160713 68.9313578,137.342401 69.1281986,137.527092 L69.1281986,136.899443 C69.0436244,136.81911 68.9597987,136.742531 68.874476,136.662949 C68.9590502,136.583367 69.0436244,136.505286 69.1281986,136.425704 L69.1281986,135.804061 C68.9306094,135.9865 68.7367623,136.166686 68.5384246,136.350626 C68.3026647,136.130649 68.0669047,135.911422 67.8303964,135.689944 C67.4082738,135.302543 66.983906,134.909137 66.5602866,134.518733 C67.1687717,133.948895 67.7720177,133.38281 68.37227,132.822731 C68.6252441,133.056222 68.8759729,133.28596 69.1281986,133.517949 L69.1281986,133.219141 C69.1281986,133.120789 69.1079906,133.026942 69.0982609,132.930092 C68.9583018,132.799457 68.8183427,132.668822 68.6776352,132.536686 L68.6776352,132.536686 Z" id="Fill-22" fill="#47301E"></path>
                <path d="M59.9852042,132.86027 L59.9904433,132.857267 C58.9291495,131.86324 58.6821629,129.935999 58.6821629,129.935999 C58.7876935,131.284392 57.4449846,132.809217 57.4449846,132.809217 L57.4472299,132.809217 C57.0221136,133.165836 56.7511768,133.700388 56.7511768,134.298756 C56.7511768,135.373867 57.6193721,136.243265 58.6888989,136.243265 C59.7569287,136.243265 60.6236271,135.373867 60.6236271,134.298756 C60.6236271,133.726665 60.3781374,133.214636 59.9852042,132.86027" id="Fill-23" fill="#4EB1B1"></path>
                <path d="M50.5413352,132.861021 L50.5465744,132.857267 C49.4867774,131.86324 49.2390423,129.935999 49.2390423,129.935999 C49.3423276,131.283641 48.0011156,132.809968 48.0011156,132.809968 L48.0026125,132.809968 C47.5789931,133.165836 47.3058109,133.700388 47.3058109,134.300258 C47.3058109,135.374618 48.1762516,136.243265 49.2450299,136.243265 C50.3130598,136.243265 51.1805066,135.374618 51.1805066,134.300258 C51.1805066,133.727416 50.93352,133.215387 50.5413352,132.861021" id="Fill-24" fill="#4EB1B1"></path>
                <path d="M69.7262056,132.861021 L69.7314447,132.858018 C68.6708992,131.864741 68.4231642,129.936749 68.4231642,129.936749 C68.5279464,131.28289 67.1852375,132.809217 67.1852375,132.809217 L67.1874828,132.809217 C66.7631149,133.166586 66.4914297,133.700388 66.4914297,134.299507 C66.4914297,135.373867 67.3603734,136.243265 68.4291517,136.243265 C69.499427,136.243265 70.36388,135.373867 70.36388,134.299507 C70.36388,133.726665 70.1183903,133.215387 69.7262056,132.861021" id="Fill-25" fill="#4EB1B1"></path>
                <path d="M68.539173,129.256547 C67.9980479,130.55689 66.7444038,131.474338 65.1030657,131.77615 C62.8899162,132.184572 60.4634601,131.391753 58.9239103,129.758816 L58.8131406,129.863173 L58.7233273,129.742299 C53.5942392,133.63432 50.8511911,131.547914 49.2330548,129.637941 L49.002534,129.836145 C50.3721869,131.451064 51.8578486,132.258148 53.5193947,132.258148 C55.1016058,132.258148 56.8454808,131.522388 58.800417,130.057624 C60.1274086,131.407519 62.0374382,132.185323 63.9362412,132.185323 C64.3463886,132.185323 64.7557876,132.148535 65.1569537,132.075709 C66.9015771,131.754377 68.2368016,130.770861 68.8175943,129.372917 L68.539173,129.256547" id="Fill-26" fill="#F8F5D8"></path>
            </g>
            <path d="M161.41453,511.35355 C161.181162,648.862037 270.801144,785.48651 337.391136,753.3734 C360.317492,742.317135 359.477347,722.412605 330.366836,700.880403 C264.398505,688.74083 312.884079,804.808736 366.098803,859.095395 C403.04473,896.785545 455.807863,854.647845 483.30825,910.967469" id="Path" stroke="#746D6D" stroke-width="2" stroke-dasharray="3" transform="translate(322.361204, 711.160510) rotate(26.000000) translate(-322.361204, -711.160510) "></path>
            <g id="Group-10" transform="translate(325.658766, 985.918642)">
                <g id="Group-5" transform="translate(53.675090, 0.000000)">
                    <path d="M67.1259825,19.9477782 C66.9995898,29.2043273 59.3873902,36.6046349 50.1222107,36.4793732 C40.8570312,36.3531251 33.4492323,28.7476643 33.5746376,19.4921015 C33.7010304,10.2355524 41.3142174,2.83524473 50.5793969,2.9605065 C59.8445764,3.08675459 67.2523752,10.6922154 67.1259825,19.9477782" id="Fill-116" fill="#EBBC82"></path>
                    <path d="M57.8246735,31.2099075 C57.8246735,36.9956206 53.1293811,44.8861259 47.3380268,44.8861259 L44.0607028,44.8861259 C38.268361,44.8861259 33.5730686,36.9956206 33.5730686,31.2099075 L33.5730686,19.3524507 C33.5730686,13.5667376 38.268361,8.8768185 44.0607028,8.8768185 L47.3380268,8.8768185 C53.1293811,8.8768185 57.8246735,13.5667376 57.8246735,19.3524507 L57.8246735,31.2099075" id="Fill-117" fill="#EBBC82"></path>
                    <path d="M66.9334139,25.6441423 C66.9334139,25.6441423 59.4564941,44.048746 50.3769539,44.8496323 C41.2974137,45.6495323 50.644551,26.4440423 50.644551,26.4440423 L66.9334139,25.6441423" id="Fill-118" fill="#EBBC82"></path>
                    <path d="M55.7915279,50.8030186 C55.7915279,51.4766705 55.2454719,52.0221017 54.5710482,52.0221017 L46.6418793,52.0221017 C45.968443,52.0221017 45.422387,51.4766705 45.422387,50.8030186 L45.422387,39.6852966 C45.422387,39.0116447 45.968443,38.4662135 46.6418793,38.4662135 L54.5710482,38.4662135 C55.2454719,38.4662135 55.7915279,39.0116447 55.7915279,39.6852966 L55.7915279,50.8030186" id="Fill-119" fill="#EBBC82"></path>
                    <polygon id="Fill-121" fill="#EBBC82" points="38.5102846 35.507274 45.9872045 35.507274 45.9872045 37.6406694 38.5102846 37.6406694"></polygon>
                    <path d="M63.0390439,32.5634757 C63.0390439,32.5634757 53.2396576,15.1254589 59.4704242,6.58990477 C48.9669909,10.3240864 38.1070907,11.5688136 37.5728839,8.19069104 C36.7552809,3.02142373 46.1517904,-0.20579295 51.4592975,0.0102096331 C60.1823707,0.366268686 61.2507843,4.9891185 61.2507843,4.9891185 C61.2507843,4.9891185 67.0233772,7.19944631 68.0157576,12.8135409 C69.6173904,21.8826904 63.0390439,32.5634757 63.0390439,32.5634757" id="Fill-122" fill="#6B6B69"></path>
                    <path d="M64.1413476,24.4881833 C64.1413476,26.5742357 62.6029111,28.2647764 60.7060327,28.2647764 C58.8101418,28.2647764 57.2717053,26.5742357 57.2717053,24.4881833 C57.2717053,22.4031173 58.8101418,20.7125765 60.7060327,20.7125765 C62.6029111,20.7125765 64.1413476,22.4031173 64.1413476,24.4881833" id="Fill-123" fill="#EBBC82"></path>
                    <path d="M34.5606986,23.372842 C34.5774851,24.824695 35.7209444,25.9895309 37.1162016,25.9737499 C38.5114588,25.9569825 39.6282571,24.7665025 39.6114705,23.3136633 C39.594684,21.8598376 38.4512248,20.6959881 37.0559676,20.7127554 C35.6607103,20.7285364 34.5439121,21.9190164 34.5606986,23.372842" id="Fill-124" fill="#494A47"></path>
                    <path d="M51.0214657,20.9396892 C49.6884174,20.3607234 48.1559055,20.9268671 47.599975,22.2041427 C47.0430571,23.4824046 47.6730458,24.9875185 49.008069,25.5664843 C50.3421048,26.1464364 51.8736292,25.5793064 52.4295597,24.3020308 C52.9854902,23.0237689 52.3564889,21.5196414 51.0214657,20.9396892" id="Fill-125" fill="#494A47"></path>
                    <path d="M5.47140099,97.1804283 C4.76735399,97.8382992 3.6633925,97.8018056 3.00476789,97.0995506 L0.470988654,94.3940936 C-0.187635957,93.6908523 -0.151100559,92.5881542 0.552946439,91.9302833 L5.54348435,87.2660084 C6.24753134,86.6081375 7.35248028,86.6446311 8.01011745,87.3478724 L10.5438967,90.0523431 C11.2025213,90.7555843 11.1659859,91.8582825 10.4619389,92.5161533 L5.47140099,97.1804283" id="Fill-127" fill="#EBBC82"></path>
                    <polyline id="Fill-128" fill="#1A212C" points="28.2991345 76.3682559 8.9018004 94.4976782 2.96232958 88.1576572 22.3596637 70.0282349 28.2991345 76.3682559"></polyline>
                    <path d="M29.2440409,69.4313308 C30.8851715,71.1820367 30.7933393,73.9299052 29.0406276,75.5681713 C27.2879159,77.2064375 24.5368992,77.1147104 22.896756,75.3640045 C21.2566129,73.6132986 21.3474577,70.8654302 23.1001693,69.227164 C24.8538685,67.5888978 27.6038978,67.6796386 29.2440409,69.4313308" id="Fill-129" fill="#1A212C"></path>
                    <polyline id="Fill-130" fill="#1A212C" points="22.7111935 69.7205052 36.6568537 49.3156584 43.8365532 54.2127032 29.8899055 74.6185363 22.7111935 69.7205052"></polyline>
                    <path d="M23.6188869,75.9828404 C21.6370885,74.630605 21.1275678,71.9290932 22.4813524,69.9485764 C23.835137,67.9690459 26.5397439,67.4601083 28.5225299,68.8123436 C30.5043283,70.164579 31.013849,72.8660907 29.6600644,74.8456213 C28.3062798,76.8261381 25.6016729,77.3350757 23.6188869,75.9828404" id="Fill-131" fill="#1A212C"></path>
                    <path d="M37.4440257,55.2711968 C35.4612397,53.9189614 34.951719,51.2174497 36.3055037,49.2369328 C37.6592883,47.256416 40.3638952,46.7474784 42.3466811,48.0997137 C44.3294671,49.4529354 44.8389878,52.1544472 43.4842157,54.1339777 C42.1304311,56.1144945 39.4258242,56.6234321 37.4440257,55.2711968" id="Fill-132" fill="#1A212C"></path>
                    <polygon id="Fill-133" fill="#1A212C" points="37.5228414 98.6313167 46.378232 98.6313167 46.378232 123.818796 37.5228414 123.818796"></polygon>
                    <path d="M41.9505367,129.175463 C39.5056273,129.175463 37.5228414,127.195932 37.5228414,124.752835 C37.5228414,122.310723 39.5056273,120.330206 41.9505367,120.330206 C44.3964335,120.330206 46.378232,122.310723 46.378232,124.752835 C46.378232,127.195932 44.3964335,129.175463 41.9505367,129.175463" id="Fill-134" fill="#1A212C"></path>
                    <path d="M41.9505367,103.530334 C39.5056273,103.530334 37.5228414,101.550804 37.5228414,99.107706 C37.5228414,96.6655946 39.5056273,94.686064 41.9505367,94.686064 C44.3964335,94.686064 46.378232,96.6655946 46.378232,99.107706 C46.378232,101.550804 44.3964335,103.530334 41.9505367,103.530334" id="Fill-135" fill="#1A212C"></path>
                    <polygon id="Fill-136" fill="#1A212C" points="37.5228414 125.261772 46.378232 125.261772 46.378232 156.302034 37.5228414 156.302034"></polygon>
                    <path d="M41.9505367,120.330206 C44.3964335,120.330206 46.378232,122.310723 46.378232,124.752835 C46.378232,127.195932 44.3964335,129.175463 41.9505367,129.175463 C39.5056273,129.175463 37.5228414,127.195932 37.5228414,124.752835 C37.5228414,122.310723 39.5056273,120.330206 41.9505367,120.330206" id="Fill-137" fill="#1A212C"></path>
                    <path d="M45.1140224,154.851167 L38.2848652,154.851167 C38.0241802,154.851167 37.767445,154.897524 37.5393456,154.985306 L26.4918311,159.252097 C25.8628298,159.49473 25.5458606,160.010571 25.7216255,160.503728 C25.8983778,160.996885 26.5224419,161.342094 27.2373508,161.342094 L37.8731014,161.342094 L41.3518638,159.936598 L41.3518638,161.342094 L45.1140224,161.342094 C45.9770477,161.342094 46.6771449,160.844006 46.6771449,160.229533 L46.6771449,155.962742 C46.6771449,155.349255 45.9770477,154.851167 45.1140224,154.851167" id="Fill-138" fill="#1A212C"></path>
                    <path d="M65.0813935,50.6787432 C65.0813935,48.8363102 63.5854171,47.343032 61.7408732,47.343032 L40.8633617,47.343032 C39.0178304,47.343032 37.5228414,48.8363102 37.5228414,50.6787432 L37.5228414,97.7722379 L65.0813935,97.7722379 L65.0813935,50.6787432" id="Fill-139" fill="#1A212C"></path>
                    <path d="M37.5228414,94.686064 L37.5228414,102.44539 C37.5228414,106.401492 40.7330192,109.608982 44.6936539,109.608982 L57.84146,109.608982 C61.8020947,109.608982 65.0132599,106.401492 65.0132599,102.44539 L65.0132599,94.686064 L37.5228414,94.686064" id="Fill-140" fill="#1A212C"></path>
                    <polygon id="Fill-141" fill="#1A212C" points="52.3344893 104.549196 61.1898799 104.549196 61.1898799 129.736675 52.3344893 129.736675"></polygon>
                    <path d="M56.7621846,135.093342 C54.3172753,135.093342 52.3344893,133.112825 52.3344893,130.670714 C52.3344893,128.228602 54.3172753,126.248085 56.7621846,126.248085 C59.207094,126.248085 61.1898799,128.228602 61.1898799,130.670714 C61.1898799,133.112825 59.207094,135.093342 56.7621846,135.093342" id="Fill-142" fill="#1A212C"></path>
                    <path d="M56.7621846,109.4492 C54.3172753,109.4492 52.3344893,107.468683 52.3344893,105.026571 C52.3344893,102.58446 54.3172753,100.603943 56.7621846,100.603943 C59.2080814,100.603943 61.1898799,102.58446 61.1898799,105.026571 C61.1898799,107.468683 59.2080814,109.4492 56.7621846,109.4492" id="Fill-143" fill="#1A212C"></path>
                    <polygon id="Fill-144" fill="#1A212C" points="52.3344893 131.179651 61.1898799 131.179651 61.1898799 162.219913 52.3344893 162.219913"></polygon>
                    <path d="M56.7621846,126.248085 C59.207094,126.248085 61.1898799,128.227616 61.1898799,130.670714 C61.1898799,133.112825 59.207094,135.093342 56.7621846,135.093342 C54.3172753,135.093342 52.3344893,133.112825 52.3344893,130.670714 C52.3344893,128.227616 54.3172753,126.248085 56.7621846,126.248085" id="Fill-145" fill="#1A212C"></path>
                    <path d="M59.9256703,160.769046 L53.0965131,160.769046 C52.8358281,160.769046 52.5790929,160.815403 52.3509935,160.904171 L41.3034791,165.170962 C40.6744777,165.413595 40.3575085,165.92845 40.5332734,166.421607 C40.7090383,166.914764 41.3340898,167.259973 42.0489987,167.259973 L52.6837619,167.259973 L56.1635117,165.855463 L56.1635117,167.259973 L59.9256703,167.259973 C60.7886956,167.259973 61.4887929,166.762871 61.4887929,166.148398 L61.4887929,161.881607 C61.4887929,161.267134 60.7886956,160.769046 59.9256703,160.769046" id="Fill-146" fill="#1A212C"></path>
                    <polyline id="Fill-147" fill="#D2D2CC" points="58.1515172 47.343032 43.4475006 47.343032 50.8000026 62.0706602 58.1515172 47.343032"></polyline>
                    <polyline id="Fill-148" fill="#1A212C" points="52.8775831 57.8896787 51.6047688 53.4581737 53.6250776 51.4401769 50.5116692 48.3293452 47.3972734 51.4401769 49.4185696 53.4581737 48.2948592 58.1589422 50.5116692 62.6042557 52.8775831 57.8896787"></polyline>
                    <polygon id="Fill-149" fill="#60372C" points="57.2717053 108.494448 89.3171993 108.494448 89.3171993 131.433134 57.2717053 131.433134"></polygon>
                    <polyline id="Fill-150" fill="#60372C" points="77.066979 108.711437 77.066979 105.245533 68.8297279 105.245533 68.8297279 108.711437 66.1586941 108.711437 66.1586941 102.576569 79.7390003 102.576569 79.7390003 108.711437 77.066979 108.711437"></polyline>
                    <path d="M76.3194845,106.215079 C76.3194845,107.17772 75.538417,107.957894 74.5746724,107.957894 L70.8658358,107.957894 C69.9020912,107.957894 69.1210236,107.17772 69.1210236,106.215079 L69.1210236,99.3878189 C69.1210236,98.4251773 69.9020912,97.6450035 70.8658358,97.6450035 L74.5746724,97.6450035 C75.538417,97.6450035 76.3194845,98.4251773 76.3194845,99.3878189 L76.3194845,106.215079" id="Fill-151" fill="#EBBC82"></path>
                    <polygon id="Fill-152" fill="#1A212C" points="69.1210236 74.9598007 77.8144735 74.9598007 77.8144735 101.494584 69.1210236 101.494584"></polygon>
                    <path d="M74.4551918,70.0282349 C76.8556662,70.0282349 78.8019167,71.9722581 78.8019167,74.3699854 C78.8019167,76.7677127 76.8556662,78.711736 74.4551918,78.711736 C72.0547174,78.711736 70.1084668,76.7677127 70.1084668,74.3699854 C70.1084668,71.9722581 72.0547174,70.0282349 74.4551918,70.0282349" id="Fill-153" fill="#1A212C"></path>
                    <polyline id="Fill-154" fill="#1A212C" points="69.4774906 75.272462 58.2591485 53.2530205 66.0086027 49.3156584 77.2259574 71.3360861 69.4774906 75.272462"></polyline>
                    <path d="M75.4389094,78.2409361 C73.29912,79.3278532 70.6823956,78.476665 69.5942332,76.3393243 C68.5060708,74.2019837 69.3582342,71.5882538 71.4980236,70.5013367 C73.637813,69.4134333 76.2545375,70.2656079 77.3426999,72.4029485 C78.4308623,74.5402891 77.5786988,77.154019 75.4389094,78.2409361" id="Fill-155" fill="#1A212C"></path>
                    <path d="M64.5780217,55.5559403 C62.4382323,56.6428574 59.8215079,55.7916691 58.732358,53.6543285 C57.6441956,51.5169879 58.4963591,48.903258 60.6361485,47.8163409 C62.7759379,46.7284375 65.3926624,47.5796257 66.4818122,49.7169664 C67.5699746,51.854307 66.7178111,54.4690232 64.5780217,55.5559403" id="Fill-156" fill="#1A212C"></path>
                </g>
                <g id="Group-3" transform="translate(0.000000, 2.832233)">
                    <g id="Group-2" transform="translate(27.520678, 77.940011) rotate(-15.000000) translate(-27.520678, -77.940011) translate(23.020678, 58.440011)">
                        <path d="M8.26106283,37.1545299 C8.2719247,38.1171716 7.49974412,38.9062221 6.53599956,38.9160852 L2.82716292,38.9575104 C1.86341837,38.9683598 1.07346381,38.1960766 1.06358938,37.233435 L0.987556252,30.4061752 C0.976694377,29.4435336 1.7498624,28.6544831 2.71360696,28.6446199 L6.42145615,28.6031948 C7.38520071,28.5923453 8.17515527,29.3646285 8.18601714,30.3272702 L8.26106283,37.1545299" id="Fill-163" fill="#EBBC82"></path>
                        <polyline id="Fill-164" fill="#1A212C" points="8.69344989 5.917879 8.98672052 32.4506895 0.293270629 32.5463619 -4.1033843e-13 6.01355138 8.69344989 5.917879"></polyline>
                        <path d="M4.29861392,0.986586547 C6.69908833,0.959956092 8.66607517,2.88228045 8.69273614,5.28000776 C8.7193971,7.67773507 6.79487032,9.6424709 4.39439591,9.66910136 C1.9939215,9.69573181 0.0269346595,7.77340745 0.000273693205,5.37568014 C-0.0263872731,2.97795283 1.89813951,1.013217 4.29861392,0.986586547" id="Fill-165" fill="#1A212C"></path>
                        <path d="M5.88817698,8.40302944 C3.6437186,9.25224507 1.133638,8.12390281 0.283449406,5.88102667 C-0.567726628,3.63913684 0.56289583,1.13291508 2.80735421,0.28271313 C5.05280004,-0.566502507 7.56189319,0.561839757 8.41306923,2.8047159 C9.26325782,5.04660573 8.1336228,7.55282748 5.88817698,8.40302944" id="Fill-167" fill="#1A212C"></path>
                    </g>
                    <g id="Group" transform="translate(15.037477, 92.840144)" fill="#60372C">
                        <polygon id="Fill-196" points="0.0819058145 5.44839394 32.1264124 5.44839394 32.1264124 28.3870793 0.0819058145 28.3870793"></polygon>
                        <polyline id="Fill-197" points="20.2227847 6.51459847 20.2227847 3.048694 11.9855335 3.048694 11.9855335 6.51459847 9.31351224 6.51459847 9.31351224 0.379730569 22.8938185 0.379730569 22.8938185 6.51459847 20.2227847 6.51459847"></polyline>
                    </g>
                    <g id="Group-6">
                        <path d="M0.849841407,17.9414951 C0.97425925,27.043193 8.46006611,34.3202116 17.570217,34.1959361 C26.6803679,34.072647 33.9647364,26.5934342 33.841306,17.4927226 C33.7168881,8.39102473 26.2310813,1.11400618 17.1209304,1.23729533 C8.01077946,1.36157078 0.725423565,8.83979722 0.849841407,17.9414951" id="Fill-92" fill="#EBBC82"></path>
                        <path d="M9.99554028,28.4841966 C9.99554028,34.1732509 14.6118372,41.9325766 20.3074096,41.9325766 L23.5304241,41.9325766 C29.2259965,41.9325766 33.8422934,34.1732509 33.8422934,28.4841966 L33.8422934,16.8249886 C33.8422934,11.1359343 29.2259965,6.5239339 23.5304241,6.5239339 L20.3074096,6.5239339 C14.6118372,6.5239339 9.99554028,11.1359343 9.99554028,16.8249886 L9.99554028,28.4841966" id="Fill-93" fill="#EBBC82"></path>
                        <path d="M1.56475028,23.0239669 C1.56475028,23.0239669 8.91725231,41.1218272 17.8447262,41.9089051 C26.7722002,42.6949967 17.5820663,23.8110448 17.5820663,23.8110448 L1.56475028,23.0239669" id="Fill-94" fill="#EBBC82"></path>
                        <path d="M11.7630636,47.9905121 C11.7630636,48.6523282 12.3002327,49.1888826 12.9628071,49.1888826 L20.7596585,49.1888826 C21.4222329,49.1888826 21.959402,48.6523282 21.959402,47.9905121 L21.959402,37.0572306 C21.959402,36.3954145 21.4222329,35.8598464 20.7596585,35.8598464 L12.9628071,35.8598464 C12.3002327,35.8598464 11.7630636,36.3954145 11.7630636,37.0572306 L11.7630636,47.9905121" id="Fill-95" fill="#EBBC82"></path>
                        <path d="M32.6622988,20.8619684 C32.6464997,22.2901499 31.5218019,23.4352595 30.1492559,23.4194785 C28.7776973,23.4036974 27.6806479,22.2329437 27.696447,20.8047622 C27.7122461,19.3746082 28.8369439,18.2304849 30.2094899,18.2462659 C31.5810485,18.2620469 32.6790853,19.4328006 32.6622988,20.8619684" id="Fill-96" fill="#60372C"></path>
                        <path d="M16.8543207,18.9366851 C18.1646578,18.3675824 19.6724836,18.923863 20.2195271,20.180426 C20.7665706,21.436989 20.1474438,22.9174451 18.8351318,23.4875341 C17.5228198,24.0576231 16.0169689,23.4993698 15.4699253,22.2437932 C14.9228818,20.9862439 15.5420087,19.5067741 16.8543207,18.9366851" id="Fill-97" fill="#60372C"></path>
                        <path d="M2.28854614,8.41864149 C6.12278807,2.91106877 10.9711342,0.118816194 16.6983047,0.118816194 C23.3467597,0.118816194 28.9603743,3.89738194 30.2776235,4.85607834 L35.9465349,1.65351948 L36.0857644,2.36958284 C36.1410612,2.65758629 37.4059759,9.44637981 33.1737944,10.9544526 C30.8454033,12.0176982 27.1286672,12.5572115 22.1282548,12.5572115 C17.2433733,12.5572115 12.3367681,12.0334793 10.0735483,11.7543526 C13.0358779,17.1120057 6.5098658,32.3377221 6.5098658,32.3377221 C6.5098658,32.3377221 -4.27696366,17.8477954 2.28854614,8.41864149" id="Fill-98" fill="#000000"></path>
                        <path d="M5.88678914,22.5653313 C5.88678914,24.6168626 7.39955212,26.277814 9.26483231,26.277814 C11.1291251,26.277814 12.641888,24.6168626 12.641888,22.5653313 C12.641888,20.5147862 11.1291251,18.8518622 9.26483231,18.8518622 C7.39955212,18.8518622 5.88678914,20.5147862 5.88678914,22.5653313" id="Fill-99" fill="#EBBC82"></path>
                        <polygon id="Fill-100" fill="#1A212C" points="20.4022041 96.08906 29.2575947 96.08906 29.2575947 121.276539 20.4022041 121.276539"></polygon>
                        <path d="M24.8298994,126.312654 C27.2757962,126.312654 29.2575947,124.333124 29.2575947,121.890026 C29.2575947,119.447915 27.2757962,117.467398 24.8298994,117.467398 C22.38499,117.467398 20.4022041,119.447915 20.4022041,121.890026 C20.4022041,124.333124 22.38499,126.312654 24.8298994,126.312654" id="Fill-101" fill="#1A212C"></path>
                        <path d="M24.811138,101.160682 C27.2570348,101.160682 29.2388333,99.1811518 29.2388333,96.738054 C29.2388333,94.2959426 27.2570348,92.3164121 24.811138,92.3164121 C22.3662286,92.3164121 20.3834427,94.2959426 20.3834427,96.738054 C20.3834427,99.1811518 22.3662286,101.160682 24.811138,101.160682" id="Fill-102" fill="#1A212C"></path>
                        <polygon id="Fill-103" fill="#1A212C" points="20.4022041 122.73431 29.2575947 122.73431 29.2575947 153.774572 20.4022041 153.774572"></polygon>
                        <path d="M24.8298994,117.697209 C22.38499,117.697209 20.4022041,119.677726 20.4022041,122.119837 C20.4022041,124.562935 22.38499,126.542465 24.8298994,126.542465 C27.2757962,126.542465 29.2575947,124.562935 29.2575947,122.119837 C29.2575947,119.677726 27.2757962,117.697209 24.8298994,117.697209" id="Fill-104" fill="#1A212C"></path>
                        <path d="M21.8774442,152.114607 L28.7056139,152.114607 C28.9672864,152.114607 29.2230342,152.160964 29.452121,152.248745 L40.4996355,156.515536 C41.1286368,156.758169 41.445606,157.274011 41.2688537,157.767168 C41.0930888,158.260324 40.4690247,158.605534 39.7531284,158.605534 L29.1183652,158.605534 L25.6396028,157.200037 L25.6396028,158.605534 L21.8774442,158.605534 C21.0134314,158.605534 20.3133342,158.107446 20.3133342,157.492973 L20.3133342,153.226182 C20.3133342,152.612695 21.0134314,152.114607 21.8774442,152.114607" id="Fill-105" fill="#1A212C"></path>
                        <path d="M2.05847188,48.0881571 C2.05847188,46.2457241 3.55444832,44.7524459 5.39899221,44.7524459 L26.2765037,44.7524459 C28.1210476,44.7524459 29.617024,46.2457241 29.617024,48.0881571 L29.617024,95.1816519 L2.05847188,95.1816519 L2.05847188,48.0881571" id="Fill-106" fill="#1A212C"></path>
                        <path d="M29.5488904,91.6279655 L29.5488904,99.3872912 C29.5488904,103.343393 26.3377252,106.550884 22.3770905,106.550884 L9.22928436,106.550884 C5.2686497,106.550884 2.05847188,103.343393 2.05847188,99.3872912 L2.05847188,91.6279655 L29.5488904,91.6279655" id="Fill-107" fill="#1A212C"></path>
                        <polygon id="Fill-108" fill="#1A212C" points="5.80483136 101.994117 14.6592345 101.994117 14.6592345 127.181596 5.80483136 127.181596"></polygon>
                        <path d="M10.2315392,132.218698 C12.677436,132.218698 14.6592345,130.238181 14.6592345,127.796069 C14.6592345,125.353958 12.677436,123.373441 10.2315392,123.373441 C7.78662985,123.373441 5.80483136,125.353958 5.80483136,127.796069 C5.80483136,130.238181 7.78662985,132.218698 10.2315392,132.218698" id="Fill-109" fill="#1A212C"></path>
                        <path d="M10.2127778,107.066726 C12.6586746,107.066726 14.6404731,105.086209 14.6404731,102.644097 C14.6404731,100.201986 12.6586746,98.221469 10.2127778,98.221469 C7.76786843,98.221469 5.7850825,100.201986 5.7850825,102.644097 C5.7850825,105.086209 7.76786843,107.066726 10.2127778,107.066726" id="Fill-110" fill="#1A212C"></path>
                        <polygon id="Fill-111" fill="#1A212C" points="5.80384392 128.639367 14.6592345 128.639367 14.6592345 159.679629 5.80384392 159.679629"></polygon>
                        <path d="M10.2315392,123.603252 C7.78662985,123.603252 5.80384392,125.582783 5.80384392,128.02588 C5.80384392,130.467992 7.78662985,132.448509 10.2315392,132.448509 C12.677436,132.448509 14.6592345,130.467992 14.6592345,128.02588 C14.6592345,125.582783 12.677436,123.603252 10.2315392,123.603252" id="Fill-112" fill="#1A212C"></path>
                        <path d="M7.27908405,158.019664 L14.1082412,158.019664 C14.3689262,158.019664 14.6256614,158.06602 14.8537608,158.154789 L25.9012753,162.421579 C26.5302766,162.664212 26.8472458,163.179068 26.6704935,163.672225 C26.4947286,164.165381 25.8706645,164.510591 25.1557556,164.510591 L14.520005,164.510591 L11.0412426,163.106081 L11.0412426,164.510591 L7.27908405,164.510591 C6.41507125,164.510591 5.71497403,164.013489 5.71497403,163.399016 L5.71497403,159.132225 C5.71497403,158.517752 6.41507125,158.019664 7.27908405,158.019664" id="Fill-113" fill="#1A212C"></path>
                        <polyline id="Fill-114" fill="#D2D2CC" points="24.7568286 44.6153484 10.052812 44.6153484 17.405314 59.3429766 24.7568286 44.6153484"></polyline>
                        <polyline id="Fill-115" fill="#1A212C" points="19.7860396 55.1965161 18.4895266 50.6841333 20.5473583 48.6286567 17.3766782 45.4616051 14.2050106 48.6286567 16.2628422 50.6841333 15.119383 55.4716974 17.3766782 59.9978886 19.7860396 55.1965161"></polyline>
                        <path d="M41.3231631,94.2594491 C42.0272101,94.9173199 43.1311716,94.8808263 43.7897962,94.1775851 L46.3235754,91.4731144 C46.9822,90.7698731 46.9456646,89.6671749 46.2416176,89.0093041 L41.2510797,84.3440428 C40.5470327,83.6861719 39.4420838,83.7226655 38.7844466,84.4259068 L36.2506674,87.1303775 C35.5920428,87.8336188 35.6285782,88.9373032 36.3316377,89.5951741 L41.3231631,94.2594491" id="Fill-157" fill="#EBBC82"></path>
                        <polyline id="Fill-158" fill="#1A212C" points="17.9819808 73.4512002 37.379315 91.5806225 43.3187858 85.2396151 23.9214517 67.1101928 17.9819808 73.4512002"></polyline>
                        <path d="M17.3371804,66.9020807 C15.6960498,68.6527866 15.7878821,71.4006551 17.5405937,73.0389213 C19.2933054,74.6771874 22.0443221,74.5864466 23.6844653,72.8357408 C25.3246084,71.0840486 25.2337637,68.3371664 23.481052,66.6989002 C21.7273529,65.0596477 18.9773236,65.1513749 17.3371804,66.9020807" id="Fill-159" fill="#1A212C"></path>
                        <polyline id="Fill-160" fill="#1A212C" points="23.810858 66.8616419 9.86519778 46.4567951 2.68549831 51.35384 16.632146 71.7586868 23.810858 66.8616419"></polyline>
                        <path d="M23.0139914,73.393994 C24.9957898,72.0417587 25.5053105,69.3392606 24.1515259,67.35973 C22.7977413,65.3792132 20.0931344,64.8702756 18.1103485,66.222511 C16.12855,67.5747463 15.6190293,70.2762581 16.9728139,72.2567749 C18.3265985,74.2372918 21.0312054,74.7462294 23.0139914,73.393994" id="Fill-161" fill="#1A212C"></path>
                        <path d="M9.07129345,53.0276134 C11.0540794,51.6753781 11.5636001,48.9738663 10.2098155,46.9943358 C8.85603083,45.0138189 6.15142392,44.5048813 4.16863799,45.8571167 C2.18585205,47.209352 1.67633136,49.9108638 3.03110342,51.8913806 C4.38488804,53.8709112 7.08949496,54.3808351 9.07129345,53.0276134" id="Fill-162" fill="#1A212C"></path>
                    </g>
                </g>
            </g>
            <g id="Group-7" transform="translate(234.377195, 665.662756)">
                <ellipse id="Oval-3" fill="#FFFFFF" cx="72.1820975" cy="72.0994925" rx="72.1820975" ry="72.0994925"></ellipse>
                <mask id="mask-2" fill="white">
                    <use xlink:href="#path-1"></use>
                </mask>
                <use id="Clip-6" fill="#00BCD4" xlink:href="#path-1"></use>
            </g>
            <g id="Group" transform="translate(90.013000, 105.634140)">
                <polygon id="Fill-5" fill="#FBFDFD" points="126.483179 329.710979 282.950465 329.710979 282.950465 63.318445 126.483179 63.318445"></polygon>
                <polygon id="Fill-6" fill="#F4F4F2" points="204.715143 329.710979 282.950465 329.710979 282.950465 63.318445 204.715143 63.318445"></polygon>
                <polygon id="Fill-7" fill="#6A6A6A" points="139.724397 124.549358 161.422671 124.549358 161.422671 96.5043324 139.724397 96.5043324"></polygon>
                <polygon id="Fill-8" fill="#6A6A6A" points="172.030082 124.549358 193.726678 124.549358 193.726678 96.5043324 172.030082 96.5043324"></polygon>
                <polygon id="Fill-9" fill="#6A6A6A" points="216.831664 124.549358 238.531617 124.549358 238.531617 96.5043324 216.831664 96.5043324"></polygon>
                <polygon id="Fill-10" fill="#6A6A6A" points="249.137349 124.549358 270.833945 124.549358 270.833945 96.5043324 249.137349 96.5043324"></polygon>
                <polygon id="Fill-11" fill="#6A6A6A" points="139.724397 168.367406 161.422671 168.367406 161.422671 140.320703 139.724397 140.320703"></polygon>
                <polygon id="Fill-12" fill="#6A6A6A" points="172.030082 168.367406 193.726678 168.367406 193.726678 140.320703 172.030082 140.320703"></polygon>
                <polygon id="Fill-13" fill="#6A6A6A" points="216.831664 168.367406 238.531617 168.367406 238.531617 140.320703 216.831664 140.320703"></polygon>
                <polygon id="Fill-14" fill="#6A6A6A" points="249.137349 168.367406 270.833945 168.367406 270.833945 140.320703 249.137349 140.320703"></polygon>
                <polygon id="Fill-15" fill="#6A6A6A" points="139.724397 212.185453 161.422671 212.185453 161.422671 184.137074 139.724397 184.137074"></polygon>
                <polygon id="Fill-16" fill="#6A6A6A" points="172.030082 212.185453 193.726678 212.185453 193.726678 184.137074 172.030082 184.137074"></polygon>
                <polygon id="Fill-17" fill="#6A6A6A" points="216.831664 212.185453 238.531617 212.185453 238.531617 184.137074 216.831664 184.137074"></polygon>
                <polygon id="Fill-18" fill="#6A6A6A" points="249.137349 212.185453 270.833945 212.185453 270.833945 184.137074 249.137349 184.137074"></polygon>
                <polygon id="Fill-19" fill="#6A6A6A" points="139.724397 256.000147 161.422671 256.000147 161.422671 227.955121 139.724397 227.955121"></polygon>
                <polygon id="Fill-20" fill="#6A6A6A" points="172.030082 256.000147 193.726678 256.000147 193.726678 227.955121 172.030082 227.955121"></polygon>
                <polygon id="Fill-21" fill="#6A6A6A" points="216.831664 256.000147 238.531617 256.000147 238.531617 227.955121 216.831664 227.955121"></polygon>
                <polygon id="Fill-22" fill="#6A6A6A" points="249.137349 256.000147 270.833945 256.000147 270.833945 227.955121 249.137349 227.955121"></polygon>
                <polygon id="Fill-23" fill="#6A6A6A" points="139.724397 299.818194 161.422671 299.818194 161.422671 271.773168 139.724397 271.773168"></polygon>
                <polygon id="Fill-24" fill="#6A6A6A" points="172.030082 299.818194 193.726678 299.818194 193.726678 271.773168 172.030082 271.773168"></polygon>
                <polygon id="Fill-25" fill="#6A6A6A" points="216.831664 299.818194 238.531617 299.818194 238.531617 271.773168 216.831664 271.773168"></polygon>
                <polygon id="Fill-26" fill="#6A6A6A" points="249.137349 299.818194 270.833945 299.818194 270.833945 271.773168 249.137349 271.773168"></polygon>
                <polygon id="Fill-27" fill="#6A6A6A" points="117.611495 86.7843147 291.823827 86.7843147 291.823827 34.9665771 117.611495 34.9665771"></polygon>
                <polygon id="Fill-28" fill="#575757" points="204.715143 86.7843147 291.823827 86.7843147 291.823827 34.9665771 204.715143 34.9665771"></polygon>
                <polyline id="Fill-29" fill="#FFFFFF" points="159.438503 79.5894561 152.581204 79.5894561 152.581204 43.9605696 159.438503 43.9605696 159.438503 59.2322482 167.230812 59.2322482 167.230812 43.9605696 174.217368 43.9605696 174.217368 79.5894561 167.230812 79.5894561 167.230812 64.3228077 159.438503 64.3228077 159.438503 79.5894561"></polyline>
                <path d="M185.52142,71.3969416 C185.52142,73.9422214 186.891201,74.9063425 189.075129,74.9063425 C191.259057,74.9063425 192.628839,73.9422214 192.628839,71.3969416 L192.628839,52.1547608 C192.628839,49.6111578 191.259057,48.6436832 189.075129,48.6436832 C186.891201,48.6436832 185.52142,49.6111578 185.52142,52.1547608 L185.52142,71.3969416 Z M178.662442,52.5102281 C178.662442,46.8110147 182.337014,43.5548004 189.075129,43.5548004 C195.806529,43.5548004 199.487816,46.8110147 199.487816,52.5102281 L199.487816,71.0414744 C199.487816,76.7423645 195.806529,79.9952253 189.075129,79.9952253 C182.337014,79.9952253 178.662442,76.7423645 178.662442,71.0414744 L178.662442,52.5102281 L178.662442,52.5102281 Z" id="Fill-30" fill="#FFFFFF"></path>
                <polyline id="Fill-31" fill="#FFFFFF" points="201.931936 43.9605696 223.133329 43.9605696 223.133329 49.0494524 215.9638 49.0494524 215.9638 79.5894561 209.104822 79.5894561 209.104822 49.0494524 201.931936 49.0494524 201.931936 43.9605696"></polyline>
                <polyline id="Fill-32" fill="#FFFFFF" points="232.995418 58.9757081 242.412663 58.9757081 242.412663 64.0662677 232.995418 64.0662677 232.995418 74.5005733 244.843354 74.5005733 244.843354 79.5894561 226.134761 79.5894561 226.134761 43.9605696 244.843354 43.9605696 244.843354 49.0494524 232.995418 49.0494524 232.995418 58.9757081"></polyline>
                <polyline id="Fill-33" fill="#FFFFFF" points="249.093704 43.9605696 255.951003 43.9605696 255.951003 74.5005733 267.239948 74.5005733 267.239948 79.5894561 249.093704 79.5894561 249.093704 43.9605696"></polyline>
                <polygon id="Fill-34" fill="#575757" points="43.6449892 217.255892 92.7523167 217.255892 92.7523167 207.914816 43.6449892 207.914816"></polygon>
                <polygon id="Fill-35" fill="#6A6A6A" points="43.6449892 217.255892 68.1986529 217.255892 68.1986529 207.914816 43.6449892 207.914816"></polygon>
                <path d="M51.0814239,208.664315 L68.4219139,208.664315 L68.4219139,73.7762249 L63.1526207,73.7762249 C62.2478265,171.878483 51.0814239,208.664315 51.0814239,208.664315" id="Fill-36" fill="#F3F3F3"></path>
                <path d="M85.2084482,208.664315 L67.8679582,208.664315 L67.8679582,73.7762249 L73.1372513,73.7762249 C74.0403669,171.878483 85.2084482,208.664315 85.2084482,208.664315" id="Fill-37" fill="#CDCFCA"></path>
                <path d="M102.993781,263.246984 L67.1461372,263.246984 L67.1461372,286.454637 C87.684462,286.893941 104.214162,305.611305 104.214162,328.647931 L134.960379,328.647931 L102.993781,263.246984" id="Fill-38" fill="#CDCFCA"></path>
                <path d="M67.0773125,286.43284 C67.3257532,286.43284 67.5691579,286.449607 67.81592,286.454637 L67.81592,263.246984 L31.9665973,263.246984 L0,328.647931 L29.2723585,328.647931 C29.2723585,305.332967 46.1998997,286.43284 67.0773125,286.43284" id="Fill-39" fill="#F3F3F3"></path>
                <polyline id="Fill-41" fill="#F3F3F3" points="55.2293765 250.399861 60.4600606 228.793487 68.40177 228.793487 68.40177 216.298478 48.4241155 216.298478 36.9303755 250.498788 55.2293765 250.498788 55.251199 250.399861 55.2293765 250.399861"></polyline>
                <polyline id="Fill-40" fill="#CDCFCA" points="87.1422569 216.298478 67.1461372 216.298478 67.1461372 228.793487 75.086168 228.793487 80.3151734 250.399861 80.2933509 250.399861 80.3151734 250.498788 98.6158531 250.498788 87.1422569 216.298478"></polyline>
                <polygon id="Fill-42" fill="#6A6A6A" points="60.4315235 72.7567716 74.4600302 72.7567716 74.4600302 70.4227601 60.4315235 70.4227601"></polygon>
                <polygon id="Fill-43" fill="#6A6A6A" points="67.1461372 71.1705828 69.4845015 71.1705828 69.4845015 57.0089011 67.1461372 57.0089011"></polygon>
                <polygon id="Fill-45" fill="#575757" points="11.750574 264.338537 122.00621 264.338537 122.00621 246.47966 11.750574 246.47966"></polygon>
                <polygon id="Fill-46" fill="#6A6A6A" points="11.750574 264.338537 66.8792314 264.338537 66.8792314 246.47966 11.750574 246.47966"></polygon>
                <polygon id="Fill-47" fill="#EFE4CD" points="302.038433 202.66832 371.668978 202.66832 371.668978 133.119137 302.038433 133.119137"></polygon>
                <polygon id="Fill-48" fill="#FCF2DD" points="302.038433 202.66832 336.853705 202.66832 336.853705 133.119137 302.038433 133.119137"></polygon>
                <polygon id="Fill-49" fill="#896B11" points="308.368635 329.710979 365.338775 329.710979 365.338775 202.66832 308.368635 202.66832"></polygon>
                <polygon id="Fill-50" fill="#EFE4CD" points="308.368635 126.794503 365.338775 126.794503 365.338775 109.933282 308.368635 109.933282"></polygon>
                <polygon id="Fill-51" fill="#FCF2DD" points="308.368635 126.794503 336.853705 126.794503 336.853705 109.933282 308.368635 109.933282"></polygon>
                <polygon id="Fill-52" fill="#FCF2DD" points="323.139107 78.3201697 350.568304 78.3201697 350.568304 61.4589488 323.139107 61.4589488"></polygon>
                <polyline id="Fill-53" fill="#896B11" points="348.458237 57.2453203 325.249174 57.2453203 336.853705 0.338699942 348.458237 57.2453203"></polyline>
                <polygon id="Fill-54" fill="#EFE4CD" points="321.027361 82.5354749 352.68005 82.5354749 352.68005 78.3201697 321.027361 78.3201697"></polygon>
                <polygon id="Fill-55" fill="#EFE4CD" points="321.027361 61.4589488 352.68005 61.4589488 352.68005 57.2453203 321.027361 57.2453203"></polygon>
                <polyline id="Fill-56" fill="#896B11" points="308.021154 103.612001 321.027361 82.5354749 352.68005 82.5354749 365.686257 103.612001 308.021154 103.612001"></polyline>
                <polygon id="Fill-57" fill="#EFE4CD" points="305.202695 109.933282 368.503037 109.933282 368.503037 103.612001 305.202695 103.612001"></polygon>
                <polygon id="Fill-58" fill="#544209" points="299.928366 133.119137 373.779045 133.119137 373.779045 126.794503 299.928366 126.794503"></polygon>
                <polygon id="Fill-59" fill="#896B11" points="299.928366 133.119137 336.853705 133.119137 336.853705 126.794503 299.928366 126.794503"></polygon>
                <path d="M356.898506,159.463957 C356.898506,148.40423 347.926103,139.440419 336.853705,139.440419 C325.781307,139.440419 316.808905,148.40423 316.808905,159.463957 C316.808905,170.522007 325.781307,179.485818 336.853705,179.485818 C347.926103,179.485818 356.898506,170.522007 356.898506,159.463957" id="Fill-60" fill="#C3D2D2"></path>
                <path d="M356.898506,159.463957 C356.898506,148.40423 347.926103,139.440419 336.853705,139.440419 L336.853705,179.485818 C347.926103,179.485818 356.898506,170.522007 356.898506,159.463957" id="Fill-61" fill="#AEC7D3"></path>
                <path d="M352.68005,159.463957 C352.68005,150.731534 345.594454,143.655724 336.853705,143.655724 C328.112957,143.655724 321.027361,150.731534 321.027361,159.463957 C321.027361,168.194702 328.112957,175.270513 336.853705,175.270513 C345.594454,175.270513 352.68005,168.194702 352.68005,159.463957" id="Fill-62" fill="#FFFEFD"></path>
                <polygon id="Fill-63" fill="#29555E" points="335.797832 160.516945 351.624177 160.516945 351.624177 158.409292 335.797832 158.409292"></polygon>
                <polygon id="Fill-64" fill="#29555E" points="335.797832 158.409292 337.909578 158.409292 337.909578 145.765053 335.797832 145.765053"></polygon>
                <polyline id="Fill-65" fill="#544209" points="348.458237 57.2453203 336.853705 0.338699942 336.853705 57.2453203 348.458237 57.2453203"></polyline>
                <polyline id="Fill-66" fill="#544209" points="336.853705 103.612001 365.686257 103.612001 352.68005 82.5354749 336.853705 82.5354749 336.853705 103.612001"></polyline>
                <path d="M121.739304,330.001054 C121.739304,330.001054 168.790281,324.372263 192.707735,314.107308 C225.105746,300.200489 242.333767,289.023391 277.303475,289.023391 C316.902909,289.023391 372.699671,327.269657 432.867646,330.001054 L121.739304,330.001054" id="Fill-77" fill="#C3C4C3"></path>
            </g>
        </g>
    </g>
</svg>