<?xml version="1.0" encoding="UTF-8"?>
<svg width="194px" height="33px" viewBox="0 0 194 33" version="1.1" xmlns="http://www.w3.org/2000/svg" xmlns:xlink="http://www.w3.org/1999/xlink">
    <!-- Generator: Sketch 41.2 (35397) - http://www.bohemiancoding.com/sketch -->
    <title>Page 1 Copy</title>
    <desc>Created with Sketch.</desc>
    <defs>
        <radialGradient cx="50%" cy="50%" fx="50%" fy="50%" r="100%" id="radialGradient-1">
            <stop stop-color="#09C7F0" offset="0%"></stop>
            <stop stop-color="#04A0D7" offset="100%"></stop>
        </radialGradient>
    </defs>
    <g id="Welcome" stroke="none" stroke-width="1" fill="none" fill-rule="evenodd">
        <g id="Page-1-Copy">
            <g id="Group-23" transform="translate(40.000000, 5.053000)">
                <path d="M2.7765,15.5105 L2.7765,7.4255 L2.1945,7.4255 C1.3505,7.4255 0.6815,6.7565 0.6815,5.9125 C0.6815,5.0695 1.3505,4.4005 2.1945,4.4005 L2.7765,4.4005 L2.7765,1.7835 C2.7765,0.8235 3.5615,0.0385 4.5495,0.0385 C5.5095,0.0385 6.2955,0.8235 6.2955,1.7835 L6.2955,4.4005 L9.0575,4.4005 C9.9015,4.4005 10.5995,5.0695 10.5995,5.9125 C10.5995,6.7565 9.9015,7.4255 9.0575,7.4255 L6.2955,7.4255 L6.2955,14.9575 C6.2955,16.3245 6.9935,16.8765 8.1855,16.8765 C8.5925,16.8765 8.9415,16.7895 9.0575,16.7895 C9.8435,16.7895 10.5415,17.4295 10.5415,18.2435 C10.5415,18.8835 10.1055,19.4065 9.6105,19.6105 C8.8545,19.8715 8.1275,20.0185 7.1965,20.0185 C4.6085,20.0185 2.7765,18.8835 2.7765,15.5105" id="Fill-1" fill="#494949"></path>
                <path d="M23.3937,12.1648 L23.3937,12.1068 C23.3937,9.4028 21.4457,7.1628 18.6827,7.1628 C15.8617,7.1628 14.0587,9.3738 14.0587,12.0498 L14.0587,12.1068 C14.0587,14.7828 16.0067,17.0218 18.7407,17.0218 C21.5907,17.0218 23.3937,14.8108 23.3937,12.1648 M10.5387,12.1648 L10.5387,12.1068 C10.5387,7.7158 14.0297,4.0808 18.7407,4.0808 C23.4527,4.0808 26.9137,7.6578 26.9137,12.0498 L26.9137,12.1068 C26.9137,16.4698 23.4227,20.1048 18.6827,20.1048 C13.9997,20.1048 10.5387,16.5278 10.5387,12.1648" id="Fill-3" fill="#494949"></path>
                <path d="M41.9445,18.157 C41.9445,19.116 41.1595,19.901 40.1705,19.901 C39.2115,19.901 38.3965,19.145 38.3965,18.157 L38.3965,17.372 C37.4075,18.825 35.9825,20.076 33.5975,20.076 C30.1365,20.076 28.1305,17.749 28.1305,14.173 L28.1305,6 C28.1305,5.012 28.9155,4.226 29.8755,4.226 C30.8635,4.226 31.6485,5.012 31.6485,6 L31.6485,13.126 C31.6485,15.511 32.8415,16.848 34.9355,16.848 C36.9705,16.848 38.3965,15.452 38.3965,13.067 L38.3965,6 C38.3965,5.012 39.1815,4.226 40.1705,4.226 C41.1305,4.226 41.9445,5.012 41.9445,6 L41.9445,18.157 Z" id="Fill-5" fill="#494949"></path>
                <path d="M44.1515,6.0003 C44.1515,5.0113 44.9075,4.2263 45.8965,4.2263 C46.8845,4.2263 47.6705,5.0113 47.6705,6.0003 L47.6705,7.5703 C48.4845,5.6513 49.9975,4.1973 51.5385,4.1973 C52.6435,4.1973 53.2835,4.9243 53.2835,5.9423 C53.2835,6.8723 52.6725,7.4833 51.8865,7.6283 C49.3855,8.0653 47.6705,9.9843 47.6705,13.6203 L47.6705,18.1573 C47.6705,19.1163 46.8845,19.9013 45.8965,19.9013 C44.9365,19.9013 44.1515,19.1453 44.1515,18.1573 L44.1515,6.0003 Z" id="Fill-7" fill="#494949"></path>
                <path d="M53.339,12.3113 L53.339,12.2523 C53.339,8.0073 56.654,4.4003 61.046,4.4003 C63.547,4.4003 65.235,5.3603 66.572,6.5813 C66.746,6.7273 66.921,7.0183 66.921,7.3673 C66.921,7.9773 66.427,8.4433 65.845,8.4433 C65.555,8.4433 65.293,8.3273 65.117,8.1813 C64.041,7.1923 62.82,6.3783 61.018,6.3783 C57.963,6.3783 55.637,8.9663 55.637,12.1943 L55.637,12.2523 C55.637,15.5103 58.022,18.0983 61.162,18.0983 C62.879,18.0983 64.245,17.3133 65.351,16.2663 C65.496,16.1213 65.699,15.9753 65.99,15.9753 C66.543,15.9753 67.008,16.4693 67.008,16.9933 C67.008,17.2543 66.892,17.5163 66.717,17.6913 C65.293,19.1163 63.576,20.1053 61.046,20.1053 C56.654,20.1053 53.339,16.5283 53.339,12.3113" id="Fill-9" fill="#38B5E5"></path>
                <path d="M80.7033,12.3113 L80.7033,12.2523 C80.7033,9.0243 78.2893,6.3783 75.1193,6.3783 C71.8613,6.3783 69.6223,9.0243 69.6223,12.1943 L69.6223,12.2523 C69.6223,15.4813 72.0073,18.0983 75.1773,18.0983 C78.4333,18.0983 80.7033,15.4813 80.7033,12.3113 M67.3243,12.3113 L67.3243,12.2523 C67.3243,8.0073 70.6393,4.4003 75.1773,4.4003 C79.6843,4.4003 83.0003,7.9493 83.0003,12.1943 L83.0003,12.2523 C83.0003,16.4983 79.6563,20.1053 75.1193,20.1053 C70.6113,20.1053 67.3243,16.5573 67.3243,12.3113" id="Fill-11" fill="#38B5E5"></path>
                <path d="M84.8576,5.7092 C84.8576,5.0992 85.3516,4.5752 85.9626,4.5752 C86.6026,4.5752 87.0976,5.0692 87.0976,5.7092 L87.0976,7.3382 C88.0866,5.7092 89.6566,4.4002 92.2446,4.4002 C95.8806,4.4002 98.0036,6.8432 98.0036,10.4212 L98.0036,18.7672 C98.0036,19.4072 97.5086,19.9012 96.8986,19.9012 C96.2576,19.9012 95.7636,19.4072 95.7636,18.7672 L95.7636,10.9742 C95.7636,8.1812 94.2526,6.4362 91.6056,6.4362 C89.0166,6.4362 87.0976,8.3272 87.0976,11.1482 L87.0976,18.7672 C87.0976,19.4072 86.6316,19.9012 85.9926,19.9012 C85.3516,19.9012 84.8576,19.4072 84.8576,18.7672 L84.8576,5.7092 Z" id="Fill-13" fill="#38B5E5"></path>
                <path d="M100.588,5.7092 C100.588,5.0992 101.082,4.5752 101.693,4.5752 C102.332,4.5752 102.827,5.0692 102.827,5.7092 L102.827,7.3382 C103.817,5.7092 105.387,4.4002 107.975,4.4002 C111.611,4.4002 113.734,6.8432 113.734,10.4212 L113.734,18.7672 C113.734,19.4072 113.238,19.9012 112.628,19.9012 C111.988,19.9012 111.494,19.4072 111.494,18.7672 L111.494,10.9742 C111.494,8.1812 109.982,6.4362 107.335,6.4362 C104.746,6.4362 102.827,8.3272 102.827,11.1482 L102.827,18.7672 C102.827,19.4072 102.361,19.9012 101.722,19.9012 C101.082,19.9012 100.588,19.4072 100.588,18.7672 L100.588,5.7092 Z" id="Fill-15" fill="#38B5E5"></path>
                <path d="M127.34,11.4094 C127.108,8.6764 125.537,6.2914 122.541,6.2914 C119.924,6.2914 117.946,8.4724 117.655,11.4094 L127.34,11.4094 Z M122.891,20.1054 C118.761,20.1054 115.387,16.9344 115.387,12.2824 L115.387,12.2234 C115.387,7.8904 118.441,4.4004 122.6,4.4004 C127.049,4.4004 129.58,8.0354 129.58,12.0204 C129.58,12.6304 129.085,13.0674 128.533,13.0674 L117.655,13.0674 C117.975,16.3254 120.274,18.1574 122.949,18.1574 C124.811,18.1574 126.177,17.4294 127.281,16.4104 C127.457,16.2664 127.66,16.1494 127.922,16.1494 C128.475,16.1494 128.91,16.5864 128.91,17.1104 C128.91,17.3714 128.795,17.6334 128.562,17.8364 C127.137,19.2034 125.449,20.1054 122.891,20.1054 L122.891,20.1054 Z" id="Fill-17" fill="#38B5E5"></path>
                <path d="M130.4191,12.3113 L130.4191,12.2523 C130.4191,8.0073 133.7341,4.4003 138.1261,4.4003 C140.6271,4.4003 142.3151,5.3603 143.6521,6.5813 C143.8261,6.7273 144.0011,7.0183 144.0011,7.3673 C144.0011,7.9773 143.5071,8.4433 142.9251,8.4433 C142.6351,8.4433 142.3731,8.3273 142.1971,8.1813 C141.1211,7.1923 139.9001,6.3783 138.0981,6.3783 C135.0431,6.3783 132.7171,8.9663 132.7171,12.1943 L132.7171,12.2523 C132.7171,15.5103 135.1021,18.0983 138.2421,18.0983 C139.9591,18.0983 141.3251,17.3133 142.4311,16.2663 C142.5761,16.1213 142.7791,15.9753 143.0701,15.9753 C143.6231,15.9753 144.0881,16.4693 144.0881,16.9933 C144.0881,17.2543 143.9721,17.5163 143.7971,17.6913 C142.3731,19.1163 140.6561,20.1053 138.1261,20.1053 C133.7341,20.1053 130.4191,16.5283 130.4191,12.3113" id="Fill-19" fill="#38B5E5"></path>
                <path d="M146.5568,15.7722 L146.5568,6.6982 L145.3358,6.6982 C144.8128,6.6982 144.3468,6.2322 144.3468,5.7092 C144.3468,5.1572 144.8128,4.7202 145.3358,4.7202 L146.5568,4.7202 L146.5568,1.1722 C146.5568,0.5622 147.0228,0.0382 147.6618,0.0382 C148.2738,0.0382 148.7968,0.5622 148.7968,1.1722 L148.7968,4.7202 L152.6938,4.7202 C153.2458,4.7202 153.7108,5.1862 153.7108,5.7092 C153.7108,6.2622 153.2458,6.6982 152.6938,6.6982 L148.7968,6.6982 L148.7968,15.4812 C148.7968,17.3132 149.8148,17.9822 151.3268,17.9822 C152.1118,17.9822 152.5198,17.7782 152.6938,17.7782 C153.2168,17.7782 153.6538,18.2142 153.6538,18.7382 C153.6538,19.1452 153.3918,19.4652 153.0138,19.6102 C152.3728,19.8722 151.6758,20.0182 150.8028,20.0182 C148.3888,20.0182 146.5568,18.8252 146.5568,15.7722" id="Fill-21" fill="#38B5E5"></path>
            </g>
            <path d="M16.923,0 C16.657,0.005 16.344,0.044 16.107,0.106 L16.107,0.106 C16.269,0.272 16.269,0.272 17.371,0.61 L17.371,0.61 C20.274,1.503 20.647,2.184 21.077,2.97 L21.077,2.97 C21.598,3.924 21.379,5.263 21.248,6.061 L21.248,6.061 C20.978,7.71 20.814,8.704 21.837,9.246 L21.837,9.246 C22.712,9.683 23.027,8.928 23.549,7.677 L23.549,7.677 C23.896,6.843 24.226,6.055 24.691,5.528 L24.691,5.528 C25.456,4.662 26.352,4.73 26.736,4.759 L26.736,4.759 C26.816,4.765 26.926,4.77 27.001,4.742 L27.001,4.742 C26.508,3.798 24.778,2.576 23.296,1.79 L23.296,1.79 C21.501,0.836 18.613,0.058 17.068,0.001 L17.068,0.001 C17.056,0.001 17.045,0.001 17.033,0 L17.033,0 L16.923,0 Z M10.678,5.38 C10.391,6.996 12.119,7.942 13.253,7.178 L13.253,7.178 C14.54,6.31 13.713,4.19 12.326,3.923 L12.326,3.923 C12.281,3.92 12.238,3.918 12.196,3.918 L12.196,3.918 C11.174,3.918 10.749,4.987 10.678,5.38 L10.678,5.38 Z M16.382,6.496 C15.136,7.776 13.729,8.462 12.211,8.552 L12.211,8.552 C9.996,8.683 8.415,7.532 7.566,6.912 L7.566,6.912 C7.067,6.55 6.738,6.31 6.411,6.361 L6.411,6.361 C6.121,6.404 5.557,6.894 5.539,7.531 L5.539,7.531 C5.517,8.226 6.113,9.05 7.014,10.071 L7.014,10.071 C8.027,11.223 9.076,12.415 9.585,13.826 L9.585,13.826 C10.77,17.121 7.682,19.304 7.402,22.218 L7.402,22.218 C7.27,23.566 8.681,23.886 9.085,23.765 L9.085,23.765 C9.685,23.581 9.962,23.393 11.117,22.093 L11.117,22.093 C12.37,20.681 14.263,18.548 16.877,17.984 L16.877,17.984 C18.167,17.706 20.554,19.087 21.641,19.217 L21.641,19.217 C22.002,19.262 22.474,19.358 22.878,19.12 L22.878,19.12 C23.415,18.8 23.707,17.537 22.492,16.898 L22.492,16.898 C19.453,15.292 15.363,12.864 18.54,7.321 L18.54,7.321 C19.014,6.494 18.611,5.722 17.844,5.722 L17.844,5.722 C17.434,5.722 16.921,5.943 16.382,6.496 L16.382,6.496 Z M25.708,6.04 C25.68,6.103 25.653,6.192 25.639,6.26 L25.639,6.26 C25.478,7.075 26.104,8.542 27.15,9.209 L27.15,9.209 C28.187,9.727 28.312,8.714 28.004,7.785 L28.004,7.785 C27.617,6.61 26.746,5.729 26.163,5.729 L26.163,5.729 C25.971,5.729 25.81,5.826 25.708,6.04 L25.708,6.04 Z M0.961,13.13 C1.253,13.847 2.141,13.293 2.723,12.033 L2.723,12.033 C3.078,11.263 3.415,9.898 2.804,9.516 L2.804,9.516 C2.743,9.494 2.682,9.484 2.62,9.484 L2.62,9.484 C1.628,9.484 0.548,12.113 0.961,13.13 L0.961,13.13 Z M24.69,11.499 C24.216,11.721 24.148,12.143 24.139,12.226 L24.139,12.226 C24.081,12.761 24.152,13.265 25.588,14.901 L25.588,14.901 C27.516,17.098 28.664,18.568 28.023,20.99 L28.023,20.99 C27.398,23.354 24.567,24.547 23.091,25.844 L23.091,25.844 C22.577,26.294 21.858,27.549 22.565,27.822 L22.565,27.822 C23.053,28.01 24.957,27.295 28.768,24.636 L28.768,24.636 C28.774,24.631 29.394,24.206 29.743,24.164 L29.743,24.164 C29.808,24.069 29.895,23.942 29.961,23.848 L29.961,23.848 C30.28,23.225 30.678,22.381 30.951,21.736 L30.951,21.736 L31.01,21.573 C31.734,19.337 32.229,15.804 31.776,13.372 L31.776,13.372 C31.666,12.845 31.519,12.142 31.379,11.624 L31.379,11.624 L31.362,11.566 C31.186,14.61 31.186,14.61 30.165,14.454 L30.165,14.454 C29.435,14.345 28.485,13.638 27.282,12.744 L27.282,12.744 C26.154,11.905 25.462,11.467 24.929,11.467 L24.929,11.467 C24.846,11.467 24.766,11.477 24.69,11.499 L24.69,11.499 Z M0.121,13.319 C-0.098,14.985 -0.005,17.923 0.284,19.593 L0.284,19.593 C1.283,25.378 6.863,29.145 7.39,29.032 L7.39,29.032 C7.404,28.815 7.37,28.718 6.456,27.792 L6.456,27.792 C5.26,26.583 3.037,24.33 2.434,22.048 L2.434,22.048 C1.746,19.437 3.475,18.039 4.864,16.915 L4.864,16.915 C5.416,16.469 5.974,15.993 6.205,15.527 L6.205,15.527 C6.212,15.513 6.707,14.091 5.632,13.968 L5.632,13.968 C5.225,14.002 5.057,14.04 4.199,14.354 L4.199,14.354 C3.287,14.689 1.908,15.195 1.203,14.773 L1.203,14.773 C0.66,14.447 0.435,13.899 0.374,13.311 L0.374,13.311 C0.342,12.993 0.31,12.851 0.272,12.851 L0.272,12.851 C0.23,12.851 0.182,13.022 0.121,13.319 L0.121,13.319 Z M12.372,26.774 C12.4,27.677 12.425,28.53 12.219,29.201 L12.219,29.201 C11.88,30.307 11.035,30.614 10.673,30.746 L10.673,30.746 C10.598,30.773 10.496,30.816 10.439,30.871 L10.439,30.871 C11.278,31.528 13.359,31.927 15.033,32.032 L15.033,32.032 C17.061,32.16 20.012,31.678 21.443,31.092 L21.443,31.092 C21.712,30.981 22.05,30.783 22.275,30.6 L22.275,30.6 C22.059,30.515 22.059,30.515 20.916,30.663 L20.916,30.663 C17.902,31.046 17.283,30.582 16.566,30.041 L16.566,30.041 C15.698,29.387 15.345,28.077 15.136,27.296 L15.136,27.296 C14.702,25.683 14.441,24.71 13.285,24.638 L13.285,24.638 C13.264,24.637 13.244,24.637 13.224,24.637 L13.224,24.637 C12.309,24.637 12.333,25.448 12.372,26.774 L12.372,26.774 Z M28.471,25.435 C27.524,25.998 25.493,28.364 25.705,28.521 L25.705,28.521 C25.967,28.714 27.209,27.79 28.154,26.656 L28.154,26.656 C28.697,26.003 29.034,25.301 28.84,25.301 L28.84,25.301 C28.711,25.301 28.566,25.379 28.471,25.435 L28.471,25.435 Z M8.269,28.515 C9.385,29.725 11.066,30.109 11.08,29.155 L11.08,29.155 C11.082,29.087 11.069,28.993 11.053,28.925 L11.053,28.925 C10.864,28.116 9.689,27.039 8.461,26.864 L8.461,26.864 C8.435,26.863 8.41,26.862 8.385,26.862 L8.385,26.862 C7.315,26.862 7.621,27.81 8.269,28.515 L8.269,28.515 Z" id="Fill-24" fill="url(#radialGradient-1)"></path>
        </g>
    </g>
</svg>